<?xml version="1.0" standalone="no"?>
<!DOCTYPE svg PUBLIC "-//W3C//DTD SVG 1.1//EN" "http://www.w3.org/Graphics/SVG/1.1/DTD/svg11.dtd" >
<!--
2018-4-1: Created.
-->
<svg>
<metadata>
Created by FontForge 20120731 at Sun Apr  1 00:48:39 2018
 By myself,,,
Created by myself,,, with FontForge 2.0 (http://fontforge.sf.net)
</metadata>
<defs>
<font id="octicons" horiz-adv-x="96" >
  <font-face 
    font-family="octicons"
    font-weight="400"
    font-stretch="normal"
    units-per-em="96"
    panose-1="2 0 5 9 0 0 0 0 0 0"
    ascent="84"
    descent="-12"
    bbox="-0.0175781 -12.0598 96.0598 84.002"
    underline-thickness="4.8"
    underline-position="-9.6"
    unicode-range="U+F028-F0D7"
  />
<missing-glyph 
d="M3 84h24v-64h-24v64zM6 81v-58h18v58h-18z" />
    <glyph glyph-name=".notdef" 
d="M3 84h24v-64h-24v64zM6 81v-58h18v58h-18z" />
    <glyph glyph-name="alert" unicode="&#xf028;" 
d="M53.3584 75l41.8916 -71.9941c0.414062 -0.761719 0.750977 -2.08496 0.750977 -2.95215c0 -0.90332 -0.363281 -2.27441 -0.810547 -3.05957c-1.03809 -1.86035 -3.06055 -3 -5.2627 -3h-83.7842c-2.13574 0 -4.15723 1.14551 -5.31543 3.00586
c-0.455078 0.766602 -0.825195 2.11133 -0.825195 3.00293s0.370117 2.23633 0.825195 3.00293l41.8916 71.9941c1.09863 1.86035 3.11426 3 5.31641 3s4.22363 -1.13965 5.32227 -3zM54.1562 6.01758v12.0186h-12.2344v-12.0186h12.2344zM54.1562 24.042v24.0361h-12.2344
v-24.0361h12.2344z" />
    <glyph glyph-name="arrow-down" unicode="&#xf029;" 
d="M42 42h18l-30 -36l-30 36h18v24h24v-24z" />
    <glyph glyph-name="arrow-left" unicode="&#xf02a;" 
d="M36 66v-18h24v-24h-24v-18l-36 30z" />
    <glyph glyph-name="arrow-right" unicode="&#xf02b;" 
d="M60 36l-36 -30v18h-24v24h24v18z" />
    <glyph glyph-name="arrow-small-down" unicode="&#xf02c;" 
d="M24 42h12l-18 -24l-18 24h12v12h12v-12z" />
    <glyph glyph-name="arrow-small-left" unicode="&#xf02d;" 
d="M24 42h12v-12h-12v-12l-24 18l24 18v-12z" />
    <glyph glyph-name="arrow-small-right" unicode="&#xf02e;" 
d="M36 36l-24 -18v12h-12v12h12v12z" />
    <glyph glyph-name="arrow-small-up" unicode="&#xf02f;" 
d="M18 54l18 -24h-12v-12h-12v12h-12z" />
    <glyph glyph-name="arrow-up" unicode="&#xf030;" 
d="M30 66l30 -36h-18v-24h-24v24h-18z" />
    <glyph glyph-name="beaker" unicode="&#xf031;" 
d="M89.04 -3.54004h0.0595703c1.74023 -3.95996 -1.13965 -8.45996 -5.45996 -8.45996h-71.6396c-3.30469 0.00683594 -5.9873 2.69531 -5.9873 6c0 0.709961 0.236328 1.8125 0.527344 2.45996l20.2197 45.54v24h-6v6h54v-6h-6v-24zM25.2598 24h45l-7.5 18v24h-30v-24z
M50.7598 36h6v-6h-6v6zM44.7598 42h-6v6h6v-6zM44.7598 60h6v-6h-6v6zM44.7598 78h-6v6h6v-6z" />
    <glyph glyph-name="bell" unicode="&#xf032;" 
d="M84 12v-6h-84v6l4.37988 3.48047c4.62012 4.61914 4.86035 15.2998 7.13965 26.5195c4.62012 22.6201 24.4805 30 24.4805 30c0 3.2998 2.7002 6 6 6s6 -2.7002 6 -6c0 0 20.3398 -7.37988 24.96 -30c2.28027 -11.2803 2.52051 -21.96 7.13965 -26.5195l3.95996 -3.48047
h-0.0595703zM42 -12c-6.66016 0 -12 5.33984 -12 12h24c0 -6.66016 -5.33984 -12 -12 -12z" />
    <glyph glyph-name="bold" unicode="&#xf033;" 
d="M6 72h22.9805c14.8799 0 25.7998 -4.5 25.7998 -17.7002c0 -6.83984 -3.78027 -13.3799 -10.0205 -15.6602v-0.359375c7.98047 -1.7998 13.7998 -7.37988 13.7998 -17.1602c0 -14.3398 -11.8193 -21.1201 -27.6592 -21.1201h-24.9004v72zM27.96 42.2998
c10.0205 0 14.2803 3.95996 14.2803 10.1406c0 7.01953 -4.68066 9.65918 -14.04 9.65918h-9.41992v-19.7998h9.17969zM29.5801 9.95996c10.6201 0 16.5 3.83984 16.5 11.8799c0 7.62012 -5.7002 10.8604 -16.5 10.8604h-10.7998v-22.7998h10.7998v0.0595703z" />
    <glyph glyph-name="book" unicode="&#xf034;" 
d="M18 54h24v-6h-24v6zM18 36v6h24v-6h-24zM18 24v6h24v-6h-24zM84 54v-6h-24v6h24zM84 42v-6h-24v6h24zM84 30v-6h-24v6h24zM96 66v-54c0 -3.2998 -2.7002 -6 -6 -6h-33l-6 -6l-6 6h-33c-3.2998 0 -6 2.7002 -6 6v54c0 3.2998 2.7002 6 6 6h33l6 -6l6 6h33
c3.2998 0 6 -2.7002 6 -6zM48 63l-3 3h-33v-54h36v51zM90 66h-33l-3 -3v-51h36v54z" />
    <glyph glyph-name="bookmark" unicode="&#xf035;" 
d="M54 84c4.37988 0 6 -1.62012 6 -6v-90l-30 18.54l-30 -18.54v90c0 4.37988 1.62012 6 6 6h48zM49.3203 58.5h-0.0605469c1.08008 0.900391 0.839844 1.37988 -0.540039 1.37988l-13.7998 0.179688l-4.2002 12.96h-1.5l-4.2002 -12.96l-13.7998 -0.179688
c-1.37988 0 -1.55957 -0.419922 -0.540039 -1.37988l11.1602 -8.16016l-4.32031 -12.96c-0.299805 -1.32031 0.0605469 -1.67969 1.2002 -1.01953l11.2803 8.04004l11.2803 -8.04004c1.08008 -0.660156 1.55957 -0.300781 1.2002 1.01953l-4.32031 12.96z" />
    <glyph glyph-name="briefcase" unicode="&#xf036;" 
d="M54 60h24c3.2998 0 6 -2.7002 6 -6v-48c0 -3.2998 -2.7002 -6 -6 -6h-72c-3.2998 0 -6 2.7002 -6 6v48c0 3.2998 2.7002 6 6 6h24v6c0 3.2998 2.7002 6 6 6h12c3.2998 0 6 -2.7002 6 -6v-6zM36 66v-6h12v6h-12zM78 30v24h-6v-18h-60v18h-6v-24h30v-6h12v6h30z" />
    <glyph glyph-name="broadcast" unicode="&#xf037;" 
d="M54 30c3.2998 0 6 -2.7002 6 -6v-12h-6v-18c0 -3.2998 -2.7002 -6 -6 -6h-6c-3.2998 0 -6 2.7002 -6 6v18h-6v12c0 3.2998 2.7002 6 6 6h6c-3.2998 0 -6 2.7002 -6 6v6c0 3.2998 2.7002 6 6 6h6c3.2998 0 6 -2.7002 6 -6v-6c0 -3.2998 -2.7002 -6 -6 -6h6zM42 42v-6h6v6
h-6zM54 18v6h-18v-6h6v-24h6v24h6zM66.54 39c0 11.8799 -9.66016 21.54 -21.54 21.54c-11.8965 -0.00390625 -21.5508 -9.66211 -21.5508 -21.5576c0 -1.35449 0.24707 -3.52344 0.550781 -4.84277v-11.8799c-3.66016 4.62012 -6 10.3799 -6 16.7998
c0 14.8809 12.1201 27 27 27s27 -12.1191 27 -27c0 -6.35938 -2.33984 -12.1797 -6 -16.7998v11.8799c0.360352 1.62012 0.540039 3.18066 0.540039 4.86035zM90 39c0 -17.2803 -9.78027 -32.2803 -24 -39.7803v6.2998c10.2344 6.37109 18.54 21.3252 18.54 33.3799
v0.100586c0 21.8262 -17.7139 39.54 -39.54 39.54s-39.54 -17.7139 -39.54 -39.54c0 -14.1602 7.37988 -26.5195 18.54 -33.4805v-6.2998c-13.2578 6.98438 -24.0176 24.8135 -24.0176 39.7979c0 24.8301 20.1514 44.9824 44.9814 44.9824h0.0361328
c24.8398 0 45 -20.1602 45 -45z" />
    <glyph glyph-name="browser" unicode="&#xf038;" 
d="M30 66v-6h6v6h-6zM18 66v-6h6v6h-6zM6 66v-6h6v6h-6zM78 6v48h-72v-48h72zM78 60v6h-36v-6h36zM84 66v-60c0 -3.2998 -2.7002 -6 -6 -6h-72c-3.2998 0 -6 2.7002 -6 6v60c0 3.2998 2.7002 6 6 6h72c3.2998 0 6 -2.7002 6 -6z" />
    <glyph glyph-name="bug" unicode="&#xf039;" 
d="M67.0195 24v-6l19.0205 -6.17969l-2.04004 -5.64062l-16.9805 5.82031v-6c0 -3.2998 -2.69922 -6 -6 -6h-6l-6 6v42h-6v-42l-6 -6h-6c-3.2998 0 -6 2.7002 -6 6v6l-16.9795 -5.82031l-2.04004 5.64062l19.0195 6.17969v6h-18v6h18v6l-19.0195 6.17969l2.04004 5.64062
l16.9795 -5.82031v6c0 3.2998 2.7002 6 6 6v6c0 2.94043 2.16016 5.28027 4.98047 5.82031l-6.17969 6.17969h-10.8008v6h13.2002l12.0605 -12h3.54004l12 12h13.1992v-6h-10.7998l-6.17969 -6.17969c2.82031 -0.540039 4.97949 -2.94043 4.97949 -5.82031v-6
c3.30078 0 6 -2.7002 6 -6v-6l16.9805 5.82031l2.04004 -5.64062l-19.0205 -6.17969v-6h18v-6h-18zM55.0195 54v6h-18v-6h18z" />
    <glyph glyph-name="calendar" unicode="&#xf03a;" 
d="M78 72c3.2998 0 6 -2.7002 6 -6v-66c0 -3.2998 -2.7002 -6 -6 -6h-66c-3.2998 0 -6 2.7002 -6 6v66c0 3.2998 2.7002 6 6 6h6v-9c0 -1.67969 1.32031 -3 3 -3h12c1.67969 0 3 1.32031 3 3v9h18v-9c0 -1.67969 1.32031 -3 3 -3h12c1.67969 0 3 1.32031 3 3v9h6zM78 0v54
h-66v-54h66zM30 66h-6v12h6v-12zM66 66h-6v12h6v-12zM36 42h-6v6h6v-6zM48 42h-6v6h6v-6zM60 42h-6v6h6v-6zM72 42h-6v6h6v-6zM24 30h-6v6h6v-6zM36 30h-6v6h6v-6zM48 30h-6v6h6v-6zM60 30h-6v6h6v-6zM72 30h-6v6h6v-6zM24 18h-6v6h6v-6zM36 18h-6v6h6v-6zM48 18h-6v6h6v-6z
M60 18h-6v6h6v-6zM72 18h-6v6h6v-6zM24 6h-6v6h6v-6zM36 6h-6v6h6v-6zM48 6h-6v6h6v-6zM60 6h-6v6h6v-6z" />
    <glyph glyph-name="check" unicode="&#xf03b;" 
d="M72 51l-48 -48l-24 24l9 9l15 -15l39 39z" />
    <glyph glyph-name="checklist" unicode="&#xf03c;" 
d="M96 33l-36 -36l-18 18l9 9l9 -9l27 27zM34.2002 10.7998l4.7998 -4.7998h-27c-3.2998 0 -6 2.7002 -6 6v54c0 3.2998 2.7002 6 6 6h42c3.2998 0 6 -2.7002 6 -6v-39l-4.7998 4.7998c-2.33984 2.33984 -6.18066 2.33984 -8.52051 0l-12.4795 -12.5996
c-0.96875 -0.966797 -1.75488 -2.8623 -1.75488 -4.23047s0.786133 -3.2627 1.75488 -4.22949v0.0595703zM24 60h30v6h-30v-6zM24 48h30v6h-30v-6zM24 36h18v6h-18v-6zM18 30h-6v-6h6v6zM18 42h-6v-6h6v6zM18 54h-6v-6h6v6zM18 66h-6v-6h6v6z" />
    <glyph glyph-name="chevron-down" unicode="&#xf03d;" 
d="M30 15l-30 30l9 9l21 -22.5l21 22.5l9 -9z" />
    <glyph glyph-name="chevron-left" unicode="&#xf03e;" 
d="M36 66l9 -9l-22.5 -21l22.5 -21l-9 -9l-30 30z" />
    <glyph glyph-name="chevron-right" unicode="&#xf03f;" 
d="M45 36l-30 -30l-9 9l22.5 21l-22.5 21l9 9z" />
    <glyph glyph-name="chevron-up" unicode="&#xf040;" 
d="M60 24l-9 -9l-21 22.5l-21 -22.5l-9 9l30 30z" />
    <glyph glyph-name="circle-slash" unicode="&#xf041;" 
d="M42 78c23.1602 0 42 -18.8398 42 -42s-18.8398 -42 -42 -42s-42 18.8398 -42 42s18.8398 42 42 42zM42 70.2002c-18.8398 0 -34.2002 -15.3604 -34.2002 -34.2002c0.00976562 -6.39648 3.1543 -15.7236 7.02051 -20.8203l48 48
c-5.82031 4.37988 -13.0205 7.02051 -20.8203 7.02051zM42 1.74023c18.8398 0 34.2002 15.3594 34.2002 34.2002c0 7.7998 -2.64062 15 -7.02051 20.8193l-48 -48c5.82031 -4.37988 13.0205 -7.01953 20.8203 -7.01953z" />
    <glyph glyph-name="circuit-board" unicode="&#xf042;" 
d="M18 54c0 3.2998 2.7002 6 6 6s6 -2.7002 6 -6s-2.7002 -6 -6 -6s-6 2.7002 -6 6zM66 54c0 -3.2998 -2.7002 -6 -6 -6s-6 2.7002 -6 6s2.7002 6 6 6s6 -2.7002 6 -6zM66 18c0 -3.2998 -2.7002 -6 -6 -6s-6 2.7002 -6 6s2.7002 6 6 6s6 -2.7002 6 -6zM78 78
c3.2998 0 6 -2.7002 6 -6v-72c0 -3.2998 -2.7002 -6 -6 -6h-54l17.9404 18h7.01953c2.09961 -3.90039 6.17969 -6.54004 10.9805 -6.54004c7.97949 0 14.1592 7.25977 12.2998 15.54c-1.02051 4.5 -4.68066 8.16016 -9.18066 9.2998
c-6.05957 1.37988 -11.5195 -1.62012 -14.04 -6.2998h-13.0195l-30 -30c-3.2998 0 -6 2.7002 -6 6v72c0 3.2998 2.7002 6 6 6h12v-13.0195c-4.7998 -2.52051 -7.67969 -7.9209 -6.17969 -14.04c1.08008 -4.44043 4.73926 -8.10059 9.12012 -9.12012
c6.05957 -1.5 11.5195 1.37988 14.04 6.17969h13.9795c2.09961 -3.90039 6.17969 -6.54004 10.9805 -6.54004c7.97949 0 14.1592 7.25977 12.2998 15.54c-1.02051 4.5 -4.68066 8.16016 -9.18066 9.2998c-6.05957 1.37988 -11.5195 -1.62012 -14.04 -6.2998h-14.0391
c-1.14062 2.16016 -2.82031 3.83984 -4.98047 4.98047v13.0195h48z" />
    <glyph glyph-name="clippy" unicode="&#xf043;" 
d="M12 6h24v-6h-24v6zM42 42v-6h-30v6h30zM54 24h30v-12h-30v-12l-18 18l18 18v-12zM27 30v-6h-15v6h15zM12 12v6h15v-6h-15zM66 6h6v-12c-0.120117 -1.67969 -0.660156 -3.12012 -1.7998 -4.2002c-1.14062 -1.08008 -2.52051 -1.67969 -4.2002 -1.7998h-60
c-3.2998 0 -6 2.7002 -6 6v66c0 3.2998 2.7002 6 6 6h18c0 6.66016 5.33984 12 12 12s12 -5.33984 12 -12h18c3.2998 0 6 -2.7002 6 -6v-30h-6v18h-60v-54h60v12zM12 54h48c0 3.2998 -2.7002 6 -6 6h-6c-3.2998 0 -6 2.7002 -6 6s-2.7002 6 -6 6s-6 -2.7002 -6 -6
s-2.7002 -6 -6 -6h-6c-3.2998 0 -6 -2.7002 -6 -6z" />
    <glyph glyph-name="clock" unicode="&#xf044;" 
d="M48 36h18v-12h-24c-3.2998 0 -6 2.7002 -6 6v30h12v-24zM42 70.2002c-18.8398 0 -34.2002 -15.3604 -34.2002 -34.2002c0.0332031 -18.8457 15.3545 -34.167 34.2002 -34.2002c18.8398 0 34.2002 15.3604 34.2002 34.2002s-15.3604 34.2002 -34.2002 34.2002zM42 78
c23.1602 0 42 -18.8398 42 -42s-18.8398 -42 -42 -42s-42 18.8398 -42 42s18.8398 42 42 42z" />
    <glyph glyph-name="cloud-download" unicode="&#xf045;" 
d="M54 12h12l-18 -18l-18 18h12v30h12v-30zM72 60c12.4805 0 24 -6.36035 24 -21c0 -14.04 -11.5195 -21 -24 -21h-12v7.7998h12c2.7002 0 16.2002 0.660156 16.2002 13.2002c0 11.8799 -11.3398 13.2002 -16.2002 13.2002h-7.7998v7.2002
c-0.419922 1.5 -3.90039 10.7998 -19.2002 10.7998c-9.83984 0 -19.2002 -7.86035 -19.2002 -16.2002v-7.7998h-7.7998c-9.90039 0 -10.2002 -9.18066 -10.2002 -10.2002c0 -1.67969 0.480469 -10.2002 10.2002 -10.2002h18v-7.7998h-18c-12 0 -18 8.82031 -18 18
c0 8.87988 6.12012 18 18 18c0 12.4805 12.4805 24 27 24c21.54 0 27 -15.3604 27 -18z" />
    <glyph glyph-name="cloud-upload" unicode="&#xf046;" 
d="M42 30h-12l18 18l18 -18h-12v-30h-12v30zM72 54c12.4805 0 24 -6.36035 24 -21c0 -14.04 -11.5195 -21 -24 -21h-12v7.7998h12c2.7002 0 16.2002 0.660156 16.2002 13.2002c0 11.8799 -11.3398 13.2002 -16.2002 13.2002h-7.7998v7.2002
c-0.419922 1.5 -3.90039 10.7998 -19.2002 10.7998c-9.83984 0 -19.2002 -7.86035 -19.2002 -16.2002v-7.7998h-7.7998c-9.90039 0 -10.2002 -9.18066 -10.2002 -10.2002c0 -1.67969 0.480469 -10.2002 10.2002 -10.2002h18v-7.7998h-18c-12 0 -18 8.82031 -18 18
c0 8.87988 6.12012 18 18 18c0 12.4805 12.4805 24 27 24c21.54 0 27 -15.3604 27 -18z" />
    <glyph glyph-name="code" unicode="&#xf047;" 
d="M57 66l27 -30l-27 -30l-9 9l21 21l-21 21zM27 66l9 -9l-21 -21l21 -21l-9 -9l-27 30z" />
    <glyph glyph-name="comment" unicode="&#xf048;" 
d="M84 78c3.2998 0 6 -2.7002 6 -6v-48c0 -3.2998 -2.7002 -6 -6 -6h-39l-21 -21v21h-12c-3.2998 0 -6 2.7002 -6 6v48c0 3.2998 2.7002 6 6 6h72zM84 24v48h-72v-48h18v-12l12 12h42z" />
    <glyph glyph-name="comment-discussion" unicode="&#xf049;" 
d="M90 78c3.2998 0 6 -2.7002 6 -6v-36c0 -3.2998 -2.7002 -6 -6 -6h-6v-18l-18 18h-6v-12c0 -3.2998 -2.7002 -6 -6 -6h-24l-18 -18v18h-6c-3.2998 0 -6 2.7002 -6 6v36c0 3.2998 2.7002 6 6 6h24v12c0 3.2998 2.7002 6 6 6h54zM54 18v12h-18c-3.2998 0 -6 2.7002 -6 6v18
h-24v-36h12v-9l9 9h27zM90 36v36h-54v-36h33l9 -9v9h12z" />
    <glyph glyph-name="credit-card" unicode="&#xf04a;" 
d="M72 30h-60v6h60v-6zM96 66v-54c0 -3.2998 -2.7002 -6 -6 -6h-84c-3.2998 0 -6 2.7002 -6 6v54c0 3.2998 2.7002 6 6 6h84c3.2998 0 6 -2.7002 6 -6zM90 48h-84v-36h84v36zM90 66h-84v-6h84v6zM36 24v-6h-24v6h24z" />
    <glyph glyph-name="dash" unicode="&#xf04b;" 
d="M0 42h48v-12h-48v12z" />
    <glyph glyph-name="dashboard" unicode="&#xf04c;" 
d="M54 54h-6v6h6v-6zM78 36v-6h-6v6h6zM36 54v-6h-6v6h6zM30 36v-6h-6v6h6zM96 69l-36 -33.4805v-5.51953c0 -3.2998 -2.7002 -6 -6 -6h-6c-3.2998 0 -6 2.7002 -6 6v6c0 3.2998 2.7002 6 6 6c0 0 5.63965 0.120117 6 0l39 30zM86.46 44.46l6 6
c2.33984 -5.33984 3.54004 -11.2803 3.54004 -17.46c0 -24.8398 -20.1602 -45 -45 -45s-45 20.1602 -45 45s20.1602 45 45.0596 45c7.61914 -0.0078125 18.9092 -3.50195 25.2002 -7.7998l-5.63965 -5.64062c-5.75977 3.60059 -12.4199 5.64062 -19.6201 5.64062
c-20.5195 0 -37.2002 -16.6807 -37.2002 -37.2002s16.7402 -37.2002 37.2598 -37.2002c20.5205 0 37.2002 16.6807 37.2002 37.2002c0 3.95996 -0.660156 7.7998 -1.7998 11.46z" />
    <glyph glyph-name="database" unicode="&#xf04d;" 
d="M36 -6c-19.8604 0 -36 5.40039 -36 12v12c0 1.01953 0.540039 2.04004 1.25977 3c4.02051 -5.16016 18 -9 34.7402 -9s30.7197 3.83984 34.7402 9c0.779297 -0.959961 1.25977 -1.98047 1.25977 -3v-12c0 -6.59961 -16.1396 -12 -36 -12zM36 18
c-19.8604 0 -36 5.40039 -36 12v12c0 0.660156 0.240234 1.25977 0.540039 1.86035c0.179688 0.359375 0.419922 0.779297 0.719727 1.13965c4.02051 -5.16016 18 -9 34.7402 -9s30.7197 3.83984 34.7402 9c0.299805 -0.360352 0.540039 -0.780273 0.719727 -1.13965
c0.299805 -0.600586 0.540039 -1.26074 0.540039 -1.86035v-12c0 -6.59961 -16.1396 -12 -36 -12zM36 42c-19.8604 0 -36 5.40039 -36 12v6v6c0 6.59961 16.1396 12 36 12s36 -5.40039 36 -12v-12c0 -6.59961 -16.1396 -12 -36 -12zM36 72c-13.2598 0 -24 -2.7002 -24 -6
s10.7402 -6 24 -6s24 2.7002 24 6s-10.7402 6 -24 6z" />
    <glyph glyph-name="desktop-download" unicode="&#xf04e;" 
d="M24 48h18v36h12v-36h18l-24 -24zM90 72c3.2998 0 6 -2.7002 6 -6v-54c0 -3.2998 -2.7002 -6 -6 -6h-32.04c1.5 -3.66016 5.16016 -8.33984 14.04 -12h-48c8.87988 3.66016 12.54 8.33984 14.04 12h-32.04c-3.2998 0 -6 2.7002 -6 6v54c0 3.2998 2.7002 6 6 6h24v-6h-24
v-48h84v48h-24v6h24z" />
    <glyph glyph-name="device-camera" unicode="&#xf04f;" 
d="M90 66c3.2998 0 6 -2.7002 6 -6v-54c0 -3.2998 -2.7002 -6 -6 -6h-84c-3.2998 0 -6 2.7002 -6 6v54c0 3.2998 2.7002 6 6 6c0 3.2998 2.7002 6 6 6h24c3.2998 0 6 -2.7002 6 -6h48zM36 54v6h-24v-6h24zM63 12c11.6396 0 21 9.36035 21 21s-9.36035 21 -21 21
s-21 -9.36035 -21 -21s9.36035 -21 21 -21zM78 33c0 -8.28027 -6.78027 -15 -15 -15s-15 6.78027 -15 15s6.78027 15 15 15s15 -6.78027 15 -15z" />
    <glyph glyph-name="device-camera-video" unicode="&#xf050;" 
d="M91.2002 71.4541c1.97949 1.37988 4.7998 0 4.7998 -2.45996v-60c0 -2.45996 -2.82031 -3.83984 -4.7998 -2.45996l-31.2002 21.7803v-16.3203c0 -3.2998 -2.7002 -6 -6 -6h-48c-3.2998 0 -6 2.7002 -6 6v54c0 3.2998 2.7002 6 6 6h48c3.2998 0 6 -2.7002 6 -6v-16.3203z
" />
    <glyph glyph-name="device-desktop" unicode="&#xf051;" 
d="M90 72c3.2998 0 6 -2.7002 6 -6v-54c0 -3.2998 -2.7002 -6 -6 -6h-32.04c1.5 -3.66016 5.16016 -8.33984 14.04 -12h-48c8.87988 3.66016 12.54 8.33984 14.04 12h-32.04c-3.2998 0 -6 2.7002 -6 6v54c0 3.2998 2.7002 6 6 6h84zM90 18v48h-84v-48h84z" />
    <glyph glyph-name="device-mobile" unicode="&#xf052;" 
d="M54 84c3.2998 0 6 -2.7002 6 -6v-84c0 -3.2998 -2.7002 -6 -6 -6h-48c-3.2998 0 -6 2.7002 -6 6v84c0 3.2998 2.7002 6 6 6h48zM30 -7.7998c4.32031 0 7.7998 3.47949 7.7998 7.7998s-3.47949 7.7998 -7.7998 7.7998s-7.7998 -3.47949 -7.7998 -7.7998
s3.47949 -7.7998 7.7998 -7.7998zM54 12v60h-48v-60h48z" />
    <glyph glyph-name="diff" unicode="&#xf053;" 
d="M36 42h12v-6h-12v-12h-6v12h-12v6h12v12h6v-12zM18 6v6h30v-6h-30zM45 72l21 -21v-57c0 -3.2998 -2.7002 -6 -6 -6h-54c-3.2998 0 -6 2.7002 -6 6v72c0 3.2998 2.7002 6 6 6h39zM60 48l-18 18h-36v-72h54v54zM51 84l27 -27v-51h-6v48l-24 24h-30v6h33z" />
    <glyph glyph-name="diff-added" unicode="&#xf054;" 
d="M78 78c3.2998 0 6 -2.7002 6 -6v-72c0 -3.2998 -2.7002 -6 -6 -6h-72c-3.2998 0 -6 2.7002 -6 6v72c0 3.2998 2.7002 6 6 6h72zM78 0v72h-72v-72h72zM36 30h-18v12h18v18h12v-18h18v-12h-18v-18h-12v18z" />
    <glyph glyph-name="diff-ignored" unicode="&#xf055;" 
d="M78 78c3.2998 0 6 -2.7002 6 -6v-72c0 -3.2998 -2.7002 -6 -6 -6h-72c-3.2998 0 -6 2.7002 -6 6v72c0 3.2998 2.7002 6 6 6h72zM78 0v72h-72v-72h72zM27 12h-9v9l39 39h9v-9z" />
    <glyph glyph-name="diff-modified" unicode="&#xf056;" 
d="M78 78c3.2998 0 6 -2.7002 6 -6v-72c0 -3.2998 -2.7002 -6 -6 -6h-72c-3.2998 0 -6 2.7002 -6 6v72c0 3.2998 2.7002 6 6 6h72zM78 0v72h-72v-72h72zM24 36c0 9.95996 8.04004 18 18 18s18 -8.04004 18 -18s-8.04004 -18 -18 -18s-18 8.04004 -18 18z" />
    <glyph glyph-name="diff-removed" unicode="&#xf057;" 
d="M78 78c3.2998 0 6 -2.7002 6 -6v-72c0 -3.2998 -2.7002 -6 -6 -6h-72c-3.2998 0 -6 2.7002 -6 6v72c0 3.2998 2.7002 6 6 6h72zM78 0v72h-72v-72h72zM66 30h-48v12h48v-12z" />
    <glyph glyph-name="diff-renamed" unicode="&#xf058;" 
d="M36 30h-18v12h18v18l30 -24l-30 -24v18zM84 72v-72c0 -3.2998 -2.7002 -6 -6 -6h-72c-3.2998 0 -6 2.7002 -6 6v72c0 3.2998 2.7002 6 6 6h72c3.2998 0 6 -2.7002 6 -6zM78 72h-72v-72h72v72z" />
    <glyph glyph-name="ellipsis" unicode="&#xf059;" 
d="M66 54c3.2998 0 6 -2.7002 6 -6v-24c0 -3.2998 -2.7002 -6 -6 -6h-60c-3.2998 0 -6 2.7002 -6 6v24c0 3.2998 2.7002 6 6 6h60zM24 30v12h-12v-12h12zM42 30v12h-12v-12h12zM60 30v12h-12v-12h12z" />
    <glyph glyph-name="eye" unicode="&#xf05a;" 
d="M48.3604 72c29.6396 0 47.6396 -36 47.6396 -36s-18 -36 -47.6396 -36c-30.3604 0 -48.3604 36 -48.3604 36s18 36 48.3604 36zM48 12c13.3203 0 24 10.6797 24 24c0 13.2002 -10.6797 24 -24 24c-13.2002 0 -24 -10.7998 -24 -24c0 -13.3203 10.7998 -24 24 -24zM60 36
c0 -6.66016 -5.33984 -12 -12 -12s-12 5.33984 -12 12s5.33984 12 12 12s12 -5.33984 12 -12z" />
    <glyph glyph-name="file" unicode="&#xf05b;" 
d="M36 54h-24v6h24v-6zM12 36v6h42v-6h-42zM12 24v6h42v-6h-42zM12 12v6h42v-6h-42zM72 57v-57c0 -3.2998 -2.7002 -6 -6 -6h-60c-3.2998 0 -6 2.7002 -6 6v72c0 3.2998 2.7002 6 6 6h45zM66 54l-18 18h-42v-72h60v54z" />
    <glyph glyph-name="file-binary" unicode="&#xf05c;" 
d="M24 12h6v-6h-18v6h6v12h-6v6h12v-18zM72 57v-57c0 -3.2998 -2.7002 -6 -6 -6h-60c-3.2998 0 -6 2.7002 -6 6v72c0 3.2998 2.7002 6 6 6h45zM66 54l-18 18h-42v-72h60v54zM48 60v-18h6v-6h-18v6h6v12h-6v6h12zM12 60h18v-24h-18v24zM18 42h6v12h-6v-12zM36 30h18v-24h-18
v24zM42 12h6v12h-6v-12z" />
    <glyph glyph-name="file-code" unicode="&#xf05d;" 
d="M51 78l21 -21v-57c0 -3.2998 -2.7002 -6 -6 -6h-60c-3.2998 0 -6 2.7002 -6 6v72c0 3.2998 2.7002 6 6 6h45zM66 0v54l-18 18h-42v-72h60zM30 42.1201l-9 -9.12012l9 -9l-3 -6l-15 15l15 15zM45 48l15 -15l-15 -15l-3 5.87988l9 9.12012l-9 9z" />
    <glyph glyph-name="file-directory" unicode="&#xf05e;" 
d="M78 60c3.2998 0 6 -2.7002 6 -6v-48c0 -3.2998 -2.7002 -6 -6 -6h-72c-3.2998 0 -6 2.7002 -6 6v60c0 3.2998 2.7002 6 6 6h30c4.13965 0 6 -2.04004 6 -6v-6h36zM36 60v6h-30v-6h30z" />
    <glyph glyph-name="file-media" unicode="&#xf05f;" 
d="M36 54h12v-12h-12v12zM72 57v-57c0 -3.2998 -2.7002 -6 -6 -6h-60c-3.2998 0 -6 2.7002 -6 6v72c0 3.2998 2.7002 6 6 6h45zM66 54l-18 18h-42v-66l18 30l12 -24l12 12l18 -18v48z" />
    <glyph glyph-name="file-pdf" unicode="&#xf060;" 
d="M51 78l21 -21v-57c0 -3.31152 -2.68848 -6 -6 -6h-60c-3.31152 0 -6 2.68848 -6 6v72c0 3.31152 2.68848 6 6 6h45zM6 72v-56.2803c1.50391 1.29688 4.19238 3.01758 6 3.83984c1.11621 0.557617 2.97168 1.36328 4.13965 1.80078
c0.660156 1.08008 2.45996 5.04004 5.45996 11.04c2.13086 4.28223 5.11426 11.4326 6.66016 15.96c-1.00195 3.5332 -1.67969 7.14551 -2.04004 10.7998c-0.0908203 0.793945 -0.165039 2.08691 -0.165039 2.88672c0 1.66016 0.316406 4.31836 0.705078 5.93359
c0.186523 0.873047 0.804688 2.13672 1.37988 2.81934c0.419922 0.475586 1.25391 1.01367 1.86035 1.2002h-24zM32.5195 43.2002l0.0605469 0.0595703c-1.44043 -4.74023 -3.27051 -9.35938 -5.45996 -13.7998c-2.33984 -4.86035 -7.18164 -8.95801 -3.66016 -7.5
c2.9209 1.21094 7.78613 2.79688 10.8604 3.54004c3.47949 0.780273 7.01953 1.44043 10.8594 1.98047c-2.06934 0.677734 -3.98926 1.75781 -5.63965 3.17969c-2.68848 3.04102 -5.83301 8.6582 -7.02051 12.54zM66 0h-0.0595703v18.2402h-2.28027
c-2.49609 0.251953 -4.96191 0.719727 -7.37988 1.37988c-2.86816 0.81543 -5.6582 1.88379 -8.33984 3.17969c-2.88086 -0.240234 -5.88086 -0.599609 -8.88086 -1.2002c-3 -0.599609 -5.93945 -1.19922 -8.63965 -1.97949l-2.51953 -0.839844
c-1.38086 -0.480469 -3 -1.08008 -4.86035 -1.86035c-2.36426 -4.37793 -7.14844 -10.7754 -10.6797 -14.2803c-1.05957 -0.976562 -3.02148 -2.15918 -4.37988 -2.63965c0.139648 -0.0166016 0.368164 -0.0292969 0.509766 -0.0292969
c0.140625 0 0.369141 0.0126953 0.509766 0.0292969h57zM66 29.1602v24.8398l-18 18h-15.1201c0.0654297 0.00292969 0.171875 0.00585938 0.237305 0.00585938c1.09961 0 2.63281 -0.621094 3.42285 -1.38574c0.74707 -0.947266 1.35254 -2.69434 1.35254 -3.90039
c0 -0.385742 -0.0683594 -1.00391 -0.152344 -1.37988c0.120117 -1.5 0.120117 -3 0 -4.5c-0.131836 -4.01953 -0.53418 -8.02832 -1.2002 -12c1.26855 -4.33887 4.73633 -10.6016 7.74023 -13.9795c1.44141 -1.39453 4.12988 -3.11523 6 -3.84082
c2.44727 0.300781 4.91406 0.462891 7.37988 0.480469c1.25781 -0.0703125 3.27441 -0.366211 4.5 -0.660156c1.10352 -0.364258 2.82324 -1.11719 3.83984 -1.67969z" />
    <glyph glyph-name="file-submodule" unicode="&#xf061;" 
d="M60 42v-6h24v-30c0 -3.2998 -2.7002 -6 -6 -6h-54v42h36zM54 30v6h-24v-6h24zM78 60c3.2998 0 6 -2.7002 6 -6v-12h-18c0 3.2998 -2.7002 6 -6 6h-36c-3.2998 0 -6 -2.7002 -6 -6v-42h-12c-3.2998 0 -6 2.7002 -6 6v60c0 3.2998 2.7002 6 6 6h30
c4.13965 0 6 -2.04004 6 -6v-6h36zM36 60v6h-30v-6h30z" />
    <glyph glyph-name="file-symlink-directory" unicode="&#xf062;" 
d="M78 60c3.2998 0 6 -2.7002 6 -6v-48c0 -3.2998 -2.7002 -6 -6 -6h-72c-3.2998 0 -6 2.7002 -6 6v60c0 3.2998 2.7002 6 6 6h30c4.13965 0 6 -2.04004 6 -6v-6h36zM6 66v-6h30v6h-30zM42 12h0.0595703l24 18l-24 18v-12c-7.13965 0 -12.8994 -2.58008 -17.2793 -7.62012
c-4.44043 -5.09961 -6.66016 -12.54 -6.78027 -22.3799c1.55957 6.2998 4.44043 10.9199 8.7002 13.7998s9.41992 4.32031 15.2998 4.2002v-12z" />
    <glyph glyph-name="file-symlink-file" unicode="&#xf063;" 
d="M51 78l21 -21v-57c0 -3.2998 -2.7002 -6 -6 -6h-60c-3.2998 0 -6 2.7002 -6 6v72c0 3.2998 2.7002 6 6 6h45zM66 0v54l-18 18h-42v-72h60zM36 57l24 -18l-24 -18v12c-5.87988 0.120117 -11.04 -1.32031 -15.2998 -4.2002s-7.14062 -7.5 -8.7002 -13.7998
c0.120117 9.83984 2.33984 17.2803 6.78027 22.3799c4.37988 5.04004 10.1396 7.62012 17.2793 7.62012v12h-0.0595703z" />
    <glyph glyph-name="file-zip" unicode="&#xf064;" 
d="M51 78l21 -21v-57c0 -3.31152 -2.68848 -6 -6 -6h-60c-3.31152 0 -6 2.68848 -6 6v72c0 3.31152 2.68848 6 6 6h45zM66 0v54l-18 18h-18v-6h-6v6h-18v-72h60zM30 60v6h6v-6h-6zM24 60h6v-6h-6v6zM30 48v6h6v-6h-6zM24 48h6v-6h-6v6zM30 36v6h6v-6h-6zM24 28.3203v7.67969
h6v-6c6.62402 0 12 -5.37598 12 -12v-6h-24v6c0.0224609 3.79785 2.71094 8.4209 6 10.3203zM36 24h-12v-6h12v6z" />
    <glyph glyph-name="flame" unicode="&#xf065;" 
d="M30.2998 83.9404l-0.120117 0.0595703l0.120117 -0.120117c21.7803 -12.7803 18.7803 -29.9395 11.2803 -37.3203c-3.59961 -3.54004 -3.66016 -8.21973 0.360352 -10.6797c5.04004 -2.82031 11.6992 1.5 11.1592 7.98047c-0.839844 9.71973 2.2207 15.7197 11.3408 16.5
c-7.68066 -14.3408 7.5 -16.6201 7.5 -33.6602c0 -12.8398 -8.16016 -29.8203 -28.6807 -33.3604c4.91992 2.21973 6.66016 6.17969 6.78027 10.8604c0.179688 6.83984 -5.28027 12.8398 -13.6201 10.0195c-8.45996 -2.81934 -15.2998 4.98047 -11.6396 17.1602
c-14.2207 -12.54 -11.4004 -32.7002 1.7998 -39.6602c-31.3799 7.02051 -29.8799 33.9004 -21.1797 46.2002c6.47949 9.17969 15.8994 13.8604 21.7793 20.1602c5.58008 5.58008 7.98047 12.8398 3.12012 25.8604z" />
    <glyph glyph-name="fold" unicode="&#xf066;" 
d="M42 30l18 -18h-12v-18h-12v18h-12zM60 66l-18 -18l-18 18h12v18h12v-18h12zM84 54l-15 -15l15 -15c0 -3.2998 -2.7002 -6 -6 -6h-15l-6 6h18l-12 12h-42l-12 -12h18l-6 -6h-15c-3.2998 0 -6 2.7002 -6 6l15 15l-15 15c0 3.2998 2.7002 6 6 6h15l6 -6h-18l12 -12h42l12 12
h-18l6 6h15c3.2998 0 6 -2.7002 6 -6z" />
    <glyph glyph-name="gear" unicode="&#xf067;" 
d="M84 31.4404v0.119141l-11.5195 -4.13965l-2.82031 -6.54004l5.51953 -10.8604l-6.7793 -6.7793l-11.04 5.2793l-6.66016 -2.69922l-3.78027 -11.6406h-9.54004l-4.13965 11.5205l-6.54004 2.7002l-10.8604 -5.45996l-6.78027 6.7793l5.28027 11.04l-2.7002 6.54004
l-11.6396 3.83984v9.54004l11.5195 4.08008l2.7002 6.54004l-5.45996 10.8604l6.78027 6.78027l11.04 -5.28027l6.66016 2.7002l3.7793 11.6396h9.60059l4.13965 -11.5195l6.54004 -2.7002l10.8604 5.45996l6.78027 -6.78027l-5.28027 -11.04l2.7002 -6.54004
l11.6396 -3.83984v-9.59961zM42 18.0596c9.95996 0 18 8.04004 18 18s-8.04004 18 -18 18s-18 -8.04004 -18 -18s8.04004 -18 18 -18z" />
    <glyph glyph-name="gift" unicode="&#xf068;" 
d="M78.1201 60h-0.120117c3.2998 0 6 -2.7002 6 -6v-18h-6v-30c0 -3.2998 -2.7002 -6 -6 -6h-54c-3.2998 0 -6 2.7002 -6 6v30h-6v18c0 3.2998 2.7002 6 6 6h8.28027c-1.14062 1.98047 -1.98047 4.08008 -2.16016 5.45996
c-0.360352 4.02051 0.660156 7.32031 3.12012 9.66016c2.2793 2.33984 5.2793 2.87988 8.63965 2.87988h0.179688c3.18066 0 6.66016 -1.55957 9.18066 -3.48047c2.51953 -1.91992 4.43945 -4.31934 5.81934 -7.19922c1.44043 2.87988 3.30078 5.21973 5.82031 7.19922
c2.52051 1.98047 6 3.36035 9.17969 3.48047h0.660156c3.2998 0 6 -0.599609 8.16016 -2.87988c2.45996 -2.33984 3.48047 -5.63965 3.12012 -9.66016c-0.179688 -1.44043 -1.01953 -3.47949 -2.16016 -5.45996h8.28027zM49.4404 65.2803v0.0595703l-2.45996 -5.28027
h17.3994c1.5 2.34082 2.7002 4.86035 3 6c0.179688 3.36035 -0.959961 4.86035 -1.7998 5.7002s-2.09961 1.5 -4.7998 1.5h-0.540039c-1.98047 -0.120117 -4.5 -1.08008 -6.2998 -2.45996c-1.98047 -1.5 -3.48047 -3.35938 -4.5 -5.51953zM24.6602 71.7598
l0.0595703 -0.0595703c-0.839844 -0.839844 -1.97949 -2.33984 -1.7998 -5.7002c0.299805 -1.13965 1.5 -3.66016 3 -6h17.4004l-2.52051 5.28027c-1.01953 2.21973 -2.51953 4.01953 -4.5 5.51953c-1.85938 1.44043 -4.31934 2.45996 -6.17969 2.45996
c-3.60059 0 -4.67969 -0.719727 -5.45996 -1.5zM42.1201 6.05957v-0.0595703v30h-24v-29.9404h24zM42.1201 42.0596v-0.0595703v12h-30v-11.9404h30zM72.1201 6.05957v-0.0595703v30h-24v-29.9404h24zM78.1201 42.0596v-0.0595703v12h-30v-11.9404h30z" />
    <glyph glyph-name="gist" unicode="&#xf069;" 
d="M45 54l15 -15l-15 -15l-4.5 4.5l10.5 10.5l-10.5 10.5zM27 54l4.5 -4.5l-10.5 -10.5l10.5 -10.5l-4.5 -4.5l-15 15zM0 6v66c0 3.2998 2.7002 6 6 6h60c3.2998 0 6 -2.7002 6 -6v-66c0 -3.2998 -2.7002 -6 -6 -6h-60c-3.2998 0 -6 2.7002 -6 6zM6 6h60v66h-60v-66z" />
    <glyph glyph-name="gist-secret" unicode="&#xf06a;" 
d="M46.6924 21l6 -21h-24l6 21l-4.5 9h21zM58.6924 48l12 -6h-60l12 6h36zM52.6924 72l6 -18h-36l6 18l12 -6zM76.8721 25.5c3.17969 -0.839844 5.16016 -4.13965 4.32031 -7.32031l-3.36035 -13.6797c-0.660156 -2.63965 -3.12012 -4.5 -5.82031 -4.5h-19.3193l12 18l-6 12
zM22.6924 30l-6 -12l12 -18h-19.3203c-2.7002 0 -5.16016 1.86035 -5.82031 4.5l-3.35938 13.6797c-0.84082 3.18066 1.13965 6.48047 4.31934 7.32031z" />
    <glyph glyph-name="git-branch" unicode="&#xf06b;" 
d="M60 54c0 -4.37988 -2.45996 -8.21973 -6.12012 -10.3799h0.120117c-0.299805 -6.24023 -2.7002 -13.3203 -7.5 -18.1201s-10.2002 -7.2002 -16.5 -7.5c-2.28027 0 -4.13965 -0.360352 -5.63965 -1.01953c-0.660156 -0.360352 -3 -2.46094 -3.54004 -2.82031
c1.97949 -2.16016 3.17969 -4.98047 3.17969 -8.16016c0 -6.66016 -5.33984 -12 -12 -12s-12 5.33984 -12 12c0 4.37988 2.45996 8.21973 6 10.3203v39.3594c-3.28906 1.89941 -5.97754 6.52246 -6 10.3203c0 6.66016 5.28027 12 11.9404 12h0.03125
c6.60059 0 11.958 -5.35742 11.958 -11.958c0 -3.81543 -2.68359 -8.45801 -5.98926 -10.3623v-28.5596c3.11914 1.74023 7.01953 2.58008 12 2.7002c3.11914 0.120117 5.87988 1.37988 8.2793 3.7793c2.40039 2.40039 3.66016 5.16016 3.78027 8.28027v1.7998
c-3.30664 1.9043 -5.98926 6.54688 -5.98926 10.3623c0 6.60059 5.35645 11.958 11.958 11.958h0.03125c6.66016 0 12 -5.33984 12 -12zM12 73.2002c-3.90039 0 -7.2002 -3.2998 -7.2002 -7.2002s3.2998 -7.2002 7.2002 -7.2002s7.2002 3.2998 7.2002 7.2002
s-3.24023 7.2002 -7.2002 7.2002zM12 -1.25977c3.90039 0 7.2002 3.2998 7.2002 7.2002c0 3.89941 -3.2998 7.19922 -7.2002 7.19922s-7.2002 -3.2998 -7.2002 -7.19922c0 -3.90039 3.24023 -7.2002 7.2002 -7.2002zM48 46.7402c3.90039 0 7.2002 3.2998 7.2002 7.2002
c0 3.89941 -3.2998 7.19922 -7.2002 7.19922s-7.2002 -3.2998 -7.2002 -7.19922c0 -3.90039 3.24023 -7.2002 7.2002 -7.2002z" />
    <glyph glyph-name="git-commit" unicode="&#xf06c;" 
d="M65.1602 42h18.8398v-12h-18.8398c-2.7002 -10.3203 -12 -18 -23.1602 -18s-20.46 7.67969 -23.1602 18h-18.8398v12h18.8398c2.7002 10.3203 12 18 23.1602 18s20.46 -7.67969 23.1602 -18zM42 22.7998c7.32031 0 13.2002 5.87988 13.2002 13.2002
s-5.87988 13.2002 -13.2002 13.2002s-13.2002 -5.87988 -13.2002 -13.2002s5.87988 -13.2002 13.2002 -13.2002z" />
    <glyph glyph-name="git-compare" unicode="&#xf06d;" 
d="M30 12v12l18 -18l-18 -18v12h-6c-4.67969 0.179688 -8.75977 2.09961 -12.3604 5.63965c-3.59961 3.54004 -5.45996 7.68066 -5.63965 12.3604v37.6797c-3.30664 1.9043 -5.98926 6.54688 -5.98926 10.3623c0 6.60059 5.35645 11.958 11.958 11.958h0.03125h0.03125
c6.60156 0 11.958 -5.35742 11.958 -11.958c0 -3.81543 -2.68262 -8.45801 -5.98926 -10.3623v-37.6797c0.0595703 -1.62012 0.599609 -2.94043 1.86035 -4.13965c1.25977 -1.2002 2.51953 -1.74023 4.13965 -1.86035h6zM12 73.2002
c-3.90039 0 -7.2002 -3.2998 -7.2002 -7.2002s3.2998 -7.2002 7.2002 -7.2002s7.2002 3.2998 7.2002 7.2002s-3.24023 7.2002 -7.2002 7.2002zM78 16.3203c3.30664 -1.9043 5.98926 -6.54688 5.98926 -10.3623c0 -6.60059 -5.35645 -11.958 -11.958 -11.958h-0.03125
h-0.03125c-6.60156 0 -11.958 5.35742 -11.958 11.958c0 3.81543 2.68262 8.45801 5.98926 10.3623v37.6797c-0.0595703 1.62012 -0.599609 2.94043 -1.86035 4.13965c-1.25977 1.2002 -2.51953 1.74023 -4.13965 1.86035h-6v-12l-18 18l18 18v-12h6
c4.67969 -0.179688 8.75977 -2.09961 12.3604 -5.63965c3.59961 -3.54004 5.45996 -7.68066 5.63965 -12.3604v-37.6797zM72 -1.2002c3.90039 0 7.2002 3.2998 7.2002 7.2002s-3.2998 7.2002 -7.2002 7.2002s-7.2002 -3.2998 -7.2002 -7.2002
s3.24023 -7.2002 7.2002 -7.2002z" />
    <glyph glyph-name="git-merge" unicode="&#xf06e;" 
d="M60 41.9404c6.66016 0 12 -5.34082 12 -12c0 -6.66016 -5.33984 -12 -12 -12c-4.37988 0 -8.21973 2.45996 -10.3799 6.11914v-0.119141c-5.63965 0.0595703 -12.6602 1.31934 -17.8203 3.83984c-5.16016 2.51953 -9.78027 5.93945 -13.7998 10.1396v-21.6602
c3.30664 -1.9043 5.98926 -6.5459 5.98926 -10.3613c0 -6.60156 -5.35645 -11.958 -11.958 -11.958h-0.03125c-6.66016 0 -12 5.33984 -12 12c0 4.37988 2.45996 8.21973 6 10.3193v39.3604c-3.28906 1.89844 -5.97754 6.52246 -6 10.3203
c0 6.65918 5.33984 12.0596 12 12.0596h0.0351562c6.60156 0 11.958 -5.35742 11.958 -11.958c0 -3.1748 -2.0127 -7.36035 -4.49316 -9.3418c2.33984 -4.98047 6.83984 -11.1602 11.3398 -14.6406c5.16016 -3.95996 12.4805 -6 18.7803 -6.11914v-0.120117
c2.09961 3.66016 6 6.12012 10.3799 6.12012zM19.2002 5.94043c0 3.89941 -3.2998 7.19922 -7.2002 7.19922s-7.2002 -3.2998 -7.2002 -7.19922c0 -3.90039 3.2998 -7.2002 7.2002 -7.2002s7.2002 3.24023 7.2002 7.2002zM12 58.7402c3.90039 0 7.2002 3.2998 7.2002 7.2002
c0 3.89941 -3.2998 7.19922 -7.2002 7.19922s-7.2002 -3.2998 -7.2002 -7.19922c0 -3.90039 3.24023 -7.2002 7.2002 -7.2002zM60 22.7402c3.90039 0 7.2002 3.2998 7.2002 7.2002c0 3.89941 -3.2998 7.19922 -7.2002 7.19922s-7.2002 -3.2998 -7.2002 -7.19922
c0 -3.90039 3.24023 -7.2002 7.2002 -7.2002z" />
    <glyph glyph-name="git-pull-request" unicode="&#xf06f;" 
d="M66 16.3203c3.30664 -1.9043 5.98926 -6.54688 5.98926 -10.3623c0 -6.60059 -5.35645 -11.958 -11.958 -11.958h-0.03125h-0.03125c-6.60156 0 -11.958 5.35742 -11.958 11.958c0 3.81543 2.68262 8.45801 5.98926 10.3623v37.6797
c-0.0595703 1.62012 -0.599609 2.94043 -1.86035 4.13965c-1.25977 1.2002 -2.51953 1.74023 -4.13965 1.86035h-6v-12l-18 18l18 18v-12h6c4.67969 -0.179688 8.75977 -2.09961 12.3604 -5.63965c3.59961 -3.54004 5.45996 -7.68066 5.63965 -12.3604v-37.6797zM60 -1.2002
c3.90039 0 7.2002 3.2998 7.2002 7.2002s-3.2998 7.2002 -7.2002 7.2002s-7.2002 -3.2998 -7.2002 -7.2002s3.24023 -7.2002 7.2002 -7.2002zM24 66c0 -4.44043 -2.45996 -8.28027 -6 -10.3203v-39.3594c3.30664 -1.9043 5.98926 -6.54688 5.98926 -10.3623
c0 -6.60059 -5.35645 -11.958 -11.958 -11.958h-0.03125h-0.03125c-6.60156 0 -11.958 5.35742 -11.958 11.958c0 3.81543 2.68262 8.45801 5.98926 10.3623v39.3594c-3.30664 1.9043 -5.98926 6.54688 -5.98926 10.3623c0 6.60059 5.35645 11.958 11.958 11.958h0.03125
c6.66016 0 12 -5.33984 12 -12zM19.2002 6c0 3.90039 -3.2998 7.2002 -7.2002 7.2002s-7.2002 -3.2998 -7.2002 -7.2002s3.2998 -7.2002 7.2002 -7.2002s7.2002 3.24023 7.2002 7.2002zM12 58.7998c3.90039 0 7.2002 3.2998 7.2002 7.2002s-3.2998 7.2002 -7.2002 7.2002
s-7.2002 -3.2998 -7.2002 -7.2002s3.24023 -7.2002 7.2002 -7.2002z" />
    <glyph glyph-name="globe" unicode="&#xf070;" 
d="M42 78l-0.120117 -0.120117c23.1602 0 42 -18.8398 42 -42c0 -20.04 -14.04 -36.8398 -32.8799 -41.04c1.13965 0.839844 1.5 3.41992 3.95996 4.7998c2.75977 1.62012 5.45996 3.78027 7.62012 5.45996c2.16016 1.68066 3 4.38086 5.04004 5.52051
s8.63965 11.6396 7.32031 13.6797c-1.32031 2.04004 -6.48047 1.2002 -7.68066 1.86035s-0.359375 2.51953 -1.67969 3.47949s-3.24023 0.660156 -7.2002 2.82031c-3.89941 2.21973 -5.82031 0.719727 -6.17969 0.540039
c-0.419922 -0.0595703 -3.60059 -2.7002 -4.62012 -2.7002c-0.900391 0.120117 -5.33984 -0.240234 -5.52051 3.2998c-0.179688 3.54004 -3.11914 3.54004 -3.35938 3.66016s1.25977 2.7002 0.120117 3.2998c-1.14062 0.600586 -4.5 -4.67969 -6.66016 -0.540039
c-2.10059 4.02051 1.74023 6 3.54004 6.48047c5.81934 1.5 6.71973 -2.63965 7.85938 -2.45996c1.14062 0.120117 -0.899414 2.75977 -0.359375 3.95996c0.540039 1.32031 2.81934 2.63965 2.81934 3.48047c-0.119141 0.839844 -0.839844 4.43945 2.52051 4.97949
c0 0 -0.540039 0.959961 0.120117 1.32031c0.660156 0.359375 0.780273 1.5 1.7998 0.479492c0 0 2.52051 1.14062 1.67969 1.7998c-0.839844 0.660156 -3.95996 0.900391 1.02051 3.54004c0 0 -4.08008 3.48047 -5.45996 3.84082
c-1.37988 0.359375 -1.02051 -0.84082 -3 0.479492c0 0 -2.75977 1.44043 -2.33984 -0.360352c0.419922 -1.7998 1.31934 -5.63965 -1.86035 -3.2998s-5.09961 2.45996 -3.2998 3.66016c1.91992 1.13965 2.63965 1.02051 2.28027 1.7998
c-0.360352 0.780273 2.15918 1.5 -0.660156 1.32031c-2.7002 -0.299805 -3.30078 1.86035 -4.98047 2.16016c-1.7998 0.240234 -2.93945 0 -2.16016 -0.780273c0.780273 -0.839844 0.660156 -1.08008 -1.67969 -0.299805
c-2.28027 0.660156 -4.13965 2.33984 -6.95996 0.299805s-6.83984 -4.2002 -6.95996 -5.51953c0 0 4.5 2.81934 5.28027 1.5c0.839844 -1.32031 -0.300781 -4.86035 0.839844 -6.66016c1.13965 -1.7998 -0.959961 1.91992 -1.14062 -0.780273
c-0.179688 -2.7002 -3.65918 -5.33984 -1.01953 -10.5s0.959961 -4.55957 1.7998 -5.7002c0.839844 -1.08008 1.5 -2.39941 1.7998 -2.2793c0.300781 0.179688 -1.43945 4.5 -1.19922 4.85938c0.239258 0.360352 0.359375 -1.25977 1.19922 -2.45996
c0.720703 -1.2002 2.40039 -2.82031 2.52051 -4.01953c0 -1.14062 0.240234 -2.82031 3.12012 -3.95996c2.87988 -1.02051 6.54004 -2.40039 7.67969 -2.88086c1.13965 -0.479492 1.2002 0.120117 1.98047 -0.65918c0.779297 -0.660156 1.0791 -1.56055 1.61914 -2.04004
c0.540039 -0.480469 3 -2.10059 3.54004 -1.98047s0.84082 0.780273 1.2002 0.780273c0.419922 -0.0605469 2.04004 -0.900391 2.04004 -1.37988c0.120117 -0.360352 0.120117 -1.62012 0 -1.98047c-0.179688 -0.299805 -2.82031 -3.59961 -2.33984 -5.63965
c0.179688 -0.660156 -0.719727 -1.02051 1.5 -3.48047s1.2002 -3.35938 4.86035 -5.45996c3.65918 -2.09961 -0.0605469 -8.33984 -1.2002 -10.7998c-1.08008 -2.16016 -0.900391 -6.05957 0.120117 -6.54004c-2.64062 -0.540039 -5.40039 -0.839844 -8.28027 -0.839844
c-23.1602 0 -42 18.8398 -42 42s18.8398 42 42 42zM51.8398 38.6396c-0.540039 -0.179688 -1.67969 -1.31934 -4.67969 0.480469c-2.87988 1.7998 -4.86035 1.37988 -5.16016 1.67969c0 0 -0.299805 0.660156 1.01953 0.839844
c2.64062 0.300781 5.88086 -2.45996 6.66016 -2.45996c0.780273 0 1.14062 0.780273 2.45996 0.300781c1.32031 -0.480469 0.300781 -0.780273 -0.299805 -0.84082zM38.04 73.7998c-0.299805 0.180664 0.179688 0.480469 0.540039 0.839844
c0.179688 0.180664 0.120117 0.660156 0.299805 0.84082c0.660156 0.65918 3.66016 1.5 3.12012 -0.180664c-0.660156 -1.62012 -3.48047 -1.7998 -3.95996 -1.5zM45.4199 68.46c1.02051 0 1.13965 0.719727 1.02051 1.5
c-0.180664 0.780273 -2.82031 1.91992 -3.30078 2.28027c-0.540039 0.359375 -3.47949 0.660156 -4.19922 0.479492c-0.720703 -0.179688 -0.180664 -1.01953 1.31934 -1.13965c1.5 0 3.83984 -0.599609 2.04004 -2.28027
c-0.359375 -0.540039 1.98047 -0.719727 3.12012 -0.839844zM54.2402 68.7598h0.0595703c0.839844 0.780273 -1.01953 2.28027 -1.13965 3.78027c0 1.67969 -2.16016 3.12012 -3.95996 3.2998c-1.86035 0.179688 -4.86035 1.44043 -6 0.540039
c-1.14062 -0.899414 -1.32031 -1.43945 -0.660156 -2.04004c0.660156 -0.599609 2.63965 0.419922 6 -2.45996c0.719727 -0.660156 4.86035 -3.66016 5.7002 -3.12012z" />
    <glyph glyph-name="grabber" unicode="&#xf071;" 
d="M48 60v-6h-48v6h48zM0 36v6h48v-6h-48zM0 18v6h48v-6h-48z" />
    <glyph glyph-name="graph" unicode="&#xf072;" 
d="M96 0v-6h-96v90h6v-84h90zM30 6h-12v30h12v-30zM54 6h-12v60h12v-60zM78 6h-12v42h12v-42z" />
    <glyph glyph-name="heart" unicode="&#xf073;" 
d="M67.2002 66v0.120117c3.12012 -3.78027 4.67969 -7.7998 4.7998 -12.1201c0 -3 -0.540039 -9.05957 -3.95996 -16.0195c-3.41992 -6.96094 -14.1602 -17.6406 -32.04 -31.9805c-17.9404 14.3398 -28.5 25.0801 -31.9805 31.9805
c-3.47949 6.89941 -4.01953 12.8994 -4.01953 16.0195c0.120117 4.32031 1.67969 8.33984 4.7998 12c3.06055 3.71973 7.5 5.7002 13.2002 6c6.17969 0 10.0801 -2.51953 13.2002 -6s4.67969 -5.51953 4.7998 -6c0.120117 0.480469 1.74023 2.51953 4.7998 6
c3.06055 3.48047 7.37988 6 13.2002 6c5.7002 -0.299805 10.0801 -2.21973 13.2002 -6z" />
    <glyph glyph-name="history" unicode="&#xf074;" 
d="M48 6h-12v42h30v-12h-18v-30zM42 78c23.1602 0 42 -18.8398 42 -42s-18.8398 -42 -42 -42s-42 18.8398 -42 42c0 2.04004 0.179688 4.01953 0.480469 6h7.85938c-0.359375 -1.98047 -0.540039 -3.95996 -0.540039 -6
c0.0332031 -18.8457 15.3545 -34.167 34.2002 -34.2002c18.8398 0 34.2002 15.3604 34.2002 34.2002s-15.3604 34.2002 -34.2002 34.2002c-10.9805 0 -20.7002 -5.21973 -27 -13.2002l9 -9h-24v24l9.54004 -9.54004c7.67969 9.41992 19.3203 15.54 32.46 15.54z" />
    <glyph glyph-name="home" unicode="&#xf075;" 
d="M96 30h-12l-6 -30c0 -3.2998 -2.7002 -6 -6 -6h-48c-3.2998 0 -6 2.7002 -6 6l-6 30h-12l48 48l18 -18v12h12v-24zM72 0l7.13965 37.8604l-31.1396 31.1396l-31.1396 -31.1396l7.13965 -37.8604h18v24h12v-24h18z" />
    <glyph glyph-name="horizontal-rule" unicode="&#xf076;" 
d="M6 42v-12h-6v36h6v-18h12v18h6v-36h-6v12h-12zM60 30h-6v12h6v-12zM60 48h-6v12h6v-12zM42 48h12v-6h-12v-12h-6v36h18v-6h-12v-12zM0 6v12h60v-12h-60z" />
    <glyph glyph-name="hubot" unicode="&#xf077;" 
d="M18 48h48c3.2998 0 6 -2.7002 6 -6v-12c0 -3.2998 -2.7002 -6 -6 -6h-48c-3.2998 0 -6 2.7002 -6 6v12c0 3.2998 2.7002 6 6 6zM66 37.5v4.5h-4.5l-7.5 -7.5l-7.5 7.5h-9l-7.5 -7.5l-7.5 7.5h-4.5v-4.5l7.5 -7.5h9l7.5 7.5l7.5 -7.5h9zM30 18h24v-6h-24v6zM42 72
c23.1602 0 42 -17.46 42 -39v-27c0 -3.2998 -2.7002 -6 -6 -6h-72c-3.2998 0 -6 2.7002 -6 6v27c0 21.54 18.8398 39 42 39zM78 6v27c0 18.54 -15.8398 33.54 -36 33.54s-36 -15 -36 -33.54v-27h72z" />
    <glyph glyph-name="inbox" unicode="&#xf078;" 
d="M84 30v-30c0 -3.2998 -2.7002 -6 -6 -6h-72c-3.2998 0 -6 2.7002 -6 6v30l6.78027 42.8398c0.479492 2.87988 3 5.16016 6 5.16016h58.4395c3 0 5.52051 -2.28027 6 -5.16016zM64.3203 26.7002l-0.0605469 0.0595703c1.08008 1.98047 3.12012 3.2998 5.45996 3.2998
h8.28027l-6 42h-60l-6 -42h8.33984c2.21973 0 4.32031 -1.31934 5.33984 -3.2998l2.64062 -5.45996c1.01953 -1.97949 3.05957 -3.2998 5.33984 -3.2998h28.5596c2.33984 0 4.44043 1.32031 5.45996 3.36035z" />
    <glyph glyph-name="info" unicode="&#xf079;" 
d="M37.7998 49.7402c-0.928711 0.916016 -1.68262 2.71875 -1.68262 4.02344c0 0.0488281 0.000976562 0.12793 0.00292969 0.176758c0 1.67969 0.540039 3.11914 1.67969 4.19922c1.14062 1.08008 2.52051 1.68066 4.2002 1.68066s3.12012 -0.540039 4.2002 -1.68066
c1.08008 -1.13965 1.67969 -2.51953 1.67969 -4.19922c0 -1.68066 -0.540039 -3.12012 -1.67969 -4.2002c-0.955078 -0.974609 -2.83594 -1.78125 -4.2002 -1.7998c-1.67969 0 -3.12012 0.65918 -4.2002 1.7998zM48 35.9404v0.0595703v-18.0596h6
c-0.0595703 -1.62012 -0.660156 -3 -1.86035 -4.14062c-1.25977 -1.2002 -2.51953 -1.85938 -4.13965 -1.85938h-6c-1.62012 0 -2.94043 0.65918 -4.13965 1.85938c-1.2002 1.14062 -1.74023 2.52051 -1.86035 4.14062v18h-6
c0.0595703 1.5 0.660156 2.93945 1.86035 4.13965c1.25977 1.08008 2.51953 1.74023 4.13965 1.86035h6c1.62012 -0.0605469 2.94043 -0.720703 4.13965 -1.86035c1.2002 -1.25977 1.74023 -2.63965 1.86035 -4.13965zM42 70.0801
c-18.8398 0 -34.2002 -15.2402 -34.2002 -34.0801s15.3604 -34.2002 34.2002 -34.2002s34.2002 15.2998 34.2002 34.2002s-15.3604 34.1396 -34.2002 34.1396v-0.0595703zM42 78c23.1602 0 42 -18.8398 42 -42s-18.8398 -42 -42 -42s-42 18.7197 -42 42s18.8398 42 42 42z
" />
    <glyph glyph-name="issue-closed" unicode="&#xf07a;" 
d="M42 24h12v-12h-12v12zM54 60v-30h-12v30h12zM63 51l9 -9l18 21l6 -6l-24 -27l-15 15zM48 1.7998v-0.0595703c15.7197 0 28.9199 10.6797 32.8799 25.1396l9.12012 9.12012c0 -23.1602 -18.8398 -42 -42 -42s-42 18.8398 -42 42s18.8398 42 42 42h0.103516
c10.9873 0 25.5098 -6.93457 32.416 -15.4805l-5.51953 -5.51953c-6.2998 7.91992 -16.0195 13.2002 -27 13.2002c-18.8398 0 -34.2002 -15.3604 -34.2002 -34.2002c0.0332031 -18.8457 15.3545 -34.167 34.2002 -34.2002z" />
    <glyph glyph-name="issue-opened" unicode="&#xf07b;" 
d="M42 70.2002c-18.8398 0 -34.2002 -15.3604 -34.2002 -34.2002c0.0332031 -18.8457 15.3545 -34.167 34.2002 -34.2002c18.8398 0 34.2002 15.3604 34.2002 34.2002s-15.3604 34.2002 -34.2002 34.2002zM42 78c23.1602 0 42 -18.8398 42 -42s-18.8398 -42 -42 -42
s-42 18.8398 -42 42s18.8398 42 42 42zM48 60v-30h-12v30h12zM48 24v-12h-12v12h12z" />
    <glyph glyph-name="issue-reopened" unicode="&#xf07c;" 
d="M48 30h-12v30h12v-30zM36 12v12h12v-12h-12zM73.9805 24h10.0195v-24l-9.54004 9.54004c-7.67969 -9.41992 -19.3203 -15.54 -32.46 -15.54c-23.1602 0 -42 18.8398 -42 42c0 2.04004 0.179688 4.01953 0.480469 6h7.85938
c-0.359375 -1.98047 -0.540039 -3.95996 -0.540039 -6c0.0332031 -18.8457 15.3545 -34.167 34.2002 -34.2002c10.9805 0 20.7002 5.21973 27 13.2002l-9 9h13.9805zM10.0195 48h-10.0195v24l9.54004 -9.54004c7.67969 9.41992 19.3203 15.54 32.46 15.54
c23.1602 0 42 -18.8398 42 -42c0 -2.04004 -0.179688 -4.01953 -0.480469 -6h-7.85938c0.359375 1.98047 0.540039 3.95996 0.540039 6c0 18.8398 -15.3604 34.2002 -34.2002 34.2002c-10.9805 0 -20.7002 -5.21973 -27 -13.2002l9 -9h-13.9805z" />
    <glyph glyph-name="italic" unicode="&#xf07d;" 
d="M16.8604 54h11.8799l-10.7402 -54h-12zM19.0195 70.2002c0 4.2002 3.48047 7.7998 7.98047 7.7998c3.36035 0 6.78027 -2.28027 6.78027 -6.17969c0 -4.5 -3.54004 -7.80078 -7.98047 -7.80078c-3.47949 0 -6.78027 2.28027 -6.78027 6.18066z" />
    <glyph glyph-name="jersey" unicode="&#xf07e;" 
d="M27 48h12l3 -3v-30l-3 -3h-12l-3 3v30zM36 18v24h-6v-24h6zM73.6201 61.5h-0.120117c1.32031 -8.21973 4.7998 -12.7197 10.5 -13.5v-54c-0.0595703 -1.62012 -0.599609 -2.94043 -1.86035 -4.13965c-1.25977 -1.2002 -2.51953 -1.74023 -4.13965 -1.86035h-66
c-1.62012 0.0595703 -2.94043 0.599609 -4.13965 1.86035c-1.2002 1.25977 -1.74023 2.51953 -1.86035 4.13965v54c5.7002 0.719727 9.2998 5.21973 10.5 13.5c1.32031 8.21973 1.7998 15.7197 1.5 22.5h18.0596c0 -1.62012 0.780273 -2.94043 2.16016 -4.13965
c1.5 -1.26074 3.78027 -1.80078 6.78027 -1.80078s5.28027 0.600586 6.78027 1.80078c1.55957 1.25977 2.33984 2.51953 2.33984 4.13965h17.8799c-0.240234 -6.71973 0.299805 -14.2197 1.62012 -22.5zM78 -6v-0.0595703v48
c-5.87988 3.7793 -8.82031 10.9199 -10.0195 15.7793c-1.2002 4.98047 -1.86035 11.7607 -1.98047 20.2803h-6c0.120117 -4.67969 -0.719727 -8.82031 -2.87988 -12.3604c-2.16016 -3.65918 -6.12012 -5.51953 -12 -5.63965c-5.87988 0.299805 -9.83984 2.16016 -12 5.63965
c-2.16016 3.54004 -3.24023 7.68066 -3.12012 12.3604h-6c0.179688 -9 -0.240234 -16.5 -1.67969 -22.5c-1.44043 -6 -4.98047 -10.5 -10.3203 -13.5v-48h66zM51 48h12l3 -3v-30l-3 -3h-12l-3 3v30zM60 18v24h-6v-24h6z" />
    <glyph glyph-name="kebab-horizontal" unicode="&#xf07f;" 
d="M9 30c-4.96777 0 -9 4.03223 -9 9s4.03223 9 9 9s9 -4.03223 9 -9s-4.03223 -9 -9 -9zM39 30c-4.96777 0 -9 4.03223 -9 9s4.03223 9 9 9s9 -4.03223 9 -9s-4.03223 -9 -9 -9zM78 39c0 -4.96777 -4.03223 -9 -9 -9s-9 4.03223 -9 9s4.03223 9 9 9s9 -4.03223 9 -9z" />
    <glyph glyph-name="kebab-vertical" unicode="&#xf080;" 
d="M0 69c0 4.96777 4.03223 9 9 9s9 -4.03223 9 -9s-4.03223 -9 -9 -9s-9 4.03223 -9 9zM0 39c0 4.96777 4.03223 9 9 9s9 -4.03223 9 -9s-4.03223 -9 -9 -9s-9 4.03223 -9 9zM9 0c-4.96777 0 -9 4.03223 -9 9s4.03223 9 9 9s9 -4.03223 9 -9s-4.03223 -9 -9 -9z" />
    <glyph glyph-name="key" unicode="&#xf081;" 
d="M76.9805 70.9805c4.5 -4.5 6.83984 -10.1406 7.01953 -16.9805c-0.179688 -6.83984 -2.51953 -12.4805 -7.01953 -16.9805s-10.1406 -6.83984 -16.9805 -7.01953c-1.91992 0 -3.66016 0.179688 -5.45996 0.660156l-6.54004 -6.66016h-12v-6h-6v-6h-6v-6l-6 -6h-12l-6 6v6
l36.5996 36.6602c-0.359375 1.7998 -0.540039 3.54004 -0.540039 5.33984c0.180664 6.83984 2.45996 12.4805 6.95996 16.9805s10.2002 6.83984 16.9805 7.01953c6.83984 -0.179688 12.4805 -2.51953 16.9805 -7.01953zM66 51.7197
c4.62012 0 8.28027 3.66016 8.28027 8.28027s-3.66016 8.28027 -8.28027 8.28027s-8.28027 -3.66016 -8.28027 -8.28027s3.66016 -8.28027 8.28027 -8.28027z" />
    <glyph glyph-name="keyboard" unicode="&#xf082;" 
d="M60 54h-6v6h6v-6zM18 48v-6h-6v6h6zM48 60v-6h-6v6h6zM24 60v-6h-12v6h12zM72 18v6h12v-6h-12zM48 42v6h6v-6h-6zM24 24v-6h-12v6h12zM72 60v-6h-6v6h6zM84 60v-6h-6v6h6zM72 30v18h12v-18h-12zM96 66v-54c0 -3.2998 -2.7002 -6 -6 -6h-84c-3.2998 0 -6 2.7002 -6 6v54
c0 3.2998 2.7002 6 6 6h84c3.2998 0 6 -2.7002 6 -6zM90 66h-84v-54h84v54zM36 42v6h6v-6h-6zM36 60v-6h-6v6h6zM24 42v6h6v-6h-6zM30 18v6h36v-6h-36zM60 42v6h6v-6h-6zM18 36v-6h-6v6h6zM48 36h6v-6h-6v6zM36 36h6v-6h-6v6zM30 36v-6h-6v6h6zM60 30v6h6v-6h-6z" />
    <glyph glyph-name="law" unicode="&#xf083;" 
d="M42 60c-4.98047 0 -9 4.01953 -9 9s4.01953 9 9 9s9 -4.01953 9 -9s-4.01953 -9 -9 -9zM84 24c0 -6.66016 -5.33984 -12 -12 -12h-6c-6.66016 0 -12 5.33984 -12 12l12 24h-6c-3.2998 0 -6 2.7002 -6 6h-6v-48c2.51953 0 6 -2.7002 6 -6h6c2.51953 0 6 -2.7002 6 -6h-48
c0 3.2998 3.48047 6 6 6h6c0 3.2998 3.48047 6 6 6h0.179688l-0.179688 48h-6c0 -3.2998 -2.7002 -6 -6 -6h-6l12 -24c0 -6.66016 -5.33984 -12 -12 -12h-6c-6.66016 0 -12 5.33984 -12 12l12 24h-6v6h18c0 3.2998 2.7002 6 6 6h24c3.2998 0 6 -2.7002 6 -6h18v-6h-6zM15 42
l-9 -18h18zM78 24l-9 18l-9 -18h18z" />
    <glyph glyph-name="light-bulb" unicode="&#xf084;" 
d="M39 84c18.1201 0 33 -13.1396 33 -30c0 -5.51953 -3.2998 -13.5 -6 -18c-8.04004 -13.5 -10.6797 -16.6797 -12 -24v-6h-30v6c-1.32031 7.32031 -3.95996 10.5 -12 24c-2.7002 4.5 -6 12.4805 -6 18c0 16.8604 14.8799 30 33 30zM60.8398 39.1201
c2.52051 4.2002 5.16016 10.9199 5.16016 14.8799c0 6.36035 -2.7002 12.3604 -7.67969 16.8604c-5.16016 4.62012 -12 7.13965 -19.3203 7.13965c-14.8799 0 -27 -10.7998 -27 -24c0 -3.90039 2.63965 -10.6797 5.16016 -14.8799
c1.5 -2.63965 2.82031 -4.7998 4.01953 -6.66016c5.16016 -8.40039 7.5 -12.3604 8.7002 -19.3799c0.120117 -0.240234 0.120117 -0.660156 0.120117 -1.02051h18c0 0.360352 0 0.720703 0.120117 1.02051c1.2002 7.01953 3.54004 10.9199 8.7002 19.3799
c1.19922 1.86035 2.51953 4.02051 4.01953 6.66016zM24 0h30c-1.37988 -6.83984 -7.7998 -12 -15 -12s-13.6201 5.16016 -15 12z" />
    <glyph glyph-name="link" unicode="&#xf085;" 
d="M24 30h6v-6h-6c-9 0 -18 10.1396 -18 21s9.2998 21 18 21h24c8.7002 0 18 -10.1396 18 -21c0 -8.45996 -5.45996 -16.3203 -12 -19.5v6.95996c3.48047 2.7002 6 7.62012 6 12.54c0 7.67969 -6.12012 15 -12 15h-24c-5.87988 0 -12 -7.32031 -12 -15s6 -15 12 -15zM78 48
c9 0 18 -10.1396 18 -21s-9.2998 -21 -18 -21h-24c-8.7002 0 -18 10.1396 -18 21c0 8.45996 5.45996 16.3203 12 19.5v-6.95996c-3.48047 -2.7002 -6 -7.55957 -6 -12.54c0 -7.67969 6.12012 -15 12 -15h24c5.87988 0 12 7.32031 12 15s-6 15 -12 15h-6v6h6z" />
    <glyph glyph-name="link-external" unicode="&#xf086;" 
d="M66 24h6v-18c0 -3.2998 -2.7002 -6 -6 -6h-60c-3.2998 0 -6 2.7002 -6 6v60c0 3.2998 2.7002 6 6 6h18v-6h-18v-60h60v18zM36 72h36v-36l-13.5 13.5l-19.5 -19.5l-9 9l19.5 19.5z" />
    <glyph glyph-name="list-ordered" unicode="&#xf087;" 
d="M72.0596 6c0 -3.54004 0 -6 -3.54004 -6h-40.9199c-3.54004 0 -3.54004 2.45996 -3.54004 6s0 6 3.54004 6h40.8604c3.54004 0 3.54004 -2.45996 3.54004 -6h0.0595703zM27.5996 60c-3.54004 0 -3.54004 2.45996 -3.54004 6s0 6 3.54004 6h40.8604
c3.54004 0 3.54004 -2.45996 3.54004 -6s0 -6 -3.54004 -6h-40.8604zM68.46 42c3.54004 0 3.54004 -2.45996 3.54004 -6s0 -6 -3.54004 -6h-40.8604c-3.54004 0 -3.54004 2.45996 -3.54004 6s0 6 3.54004 6h40.8604zM12.0596 78v-18.8398h6v-5.16016h-17.04v5.16016h5.04004
v12.8398h-4.5v3.95996c2.7002 0.540039 4.38086 0.900391 6.18066 2.04004h4.31934zM13.5596 29.2197l-0.0595703 0.0605469h3.95996l0.540039 -5.28027h-18v3.48047c5.58008 5.15918 10.2002 9.17969 10.2002 12.3594c0 2.16016 -1.2002 3.12012 -2.87988 3.12012
c-1.56055 0 -2.7002 -1.13965 -3.83984 -2.28027l-3.48047 3.48047c2.45996 2.63965 4.74023 3.83984 8.28027 3.83984c4.7998 0 8.04004 -3.12012 8.16016 -7.7998c0 -3.83984 -3.66016 -7.98047 -6.84082 -11.3398c1.26074 0.179688 2.94043 0.359375 3.95996 0.359375z
M13.0801 6.54004v0.0595703c2.75977 -0.779297 4.62012 -2.63965 4.62012 -5.63965c0 -4.5 -4.2002 -6.95996 -9.18066 -6.95996c-3.83984 0 -6.65918 1.2002 -8.45996 3.36035l2.88086 3.95996c1.5 -1.44043 3.17969 -2.28027 4.85938 -2.28027
c2.10059 0 3.48047 0.780273 3.48047 2.28027c0 1.7998 -0.900391 2.81934 -5.87988 2.81934v4.5c3.95996 0 5.15918 1.02051 5.15918 2.64062c0 1.37988 -0.899414 2.16016 -2.51953 2.16016c-1.5 0 -2.63965 -0.660156 -4.13965 -1.86035l-3.30078 3.83984
c2.34082 1.98047 4.80078 3.12012 7.68066 3.12012c5.2793 0 8.63965 -2.45996 8.63965 -6.66016c0 -2.33984 -1.2002 -4.01953 -3.83984 -5.16016v-0.179688z" />
    <glyph glyph-name="list-unordered" unicode="&#xf088;" 
d="M12 6c0 -3.54004 0 -6 -3.54004 -6h-4.91992c-3.54004 0 -3.54004 2.45996 -3.54004 6s0 6 3.54004 6h4.86035c3.54004 0 3.54004 -2.45996 3.54004 -6h0.0595703zM27.54 60c-3.54004 0 -3.54004 2.45996 -3.54004 6s0 6 3.54004 6h40.8604
c3.54004 0 3.54004 -2.45996 3.54004 -6s0 -6 -3.54004 -6h-40.8604zM8.45996 42h-0.0595703c3.54004 0 3.54004 -2.45996 3.54004 -6s0 -6 -3.54004 -6h-4.86035c-3.54004 0 -3.54004 2.45996 -3.54004 6s0 6 3.54004 6h4.91992zM8.45996 72h-0.0595703
c3.54004 0 3.54004 -2.45996 3.54004 -6s0 -6 -3.54004 -6h-4.86035c-3.54004 0 -3.54004 2.45996 -3.54004 6s0 6 3.54004 6h4.91992zM68.46 42h-0.0595703c3.54004 0 3.54004 -2.45996 3.54004 -6s0 -6 -3.54004 -6h-40.8604c-3.54004 0 -3.54004 2.45996 -3.54004 6
s0 6 3.54004 6h40.9199zM68.46 12h-0.0595703c3.54004 0 3.54004 -2.45996 3.54004 -6s0 -6 -3.54004 -6h-40.8604c-3.54004 0 -3.54004 2.45996 -3.54004 6s0 6 3.54004 6h40.9199z" />
    <glyph glyph-name="location" unicode="&#xf089;" 
d="M36 84c19.8604 0 36 -15 36 -33c0 -27.1201 -36 -63 -36 -63s-36 35.8799 -36 63c0 18 16.1396 33 36 33zM36 -3.2998c11.1602 12.1797 30 36.6602 30 54.2998c0 7.01953 -3.12012 13.6797 -8.63965 18.8398c-5.7002 5.28027 -13.3203 8.16016 -21.3604 8.16016
c-16.5 0 -30 -12.1201 -30 -27c0 -17.6396 18.8398 -42.1201 30 -54.2998zM48 51c0 -6.66016 -5.33984 -12 -12 -12s-12 5.33984 -12 12s5.33984 12 12 12s12 -5.33984 12 -12z" />
    <glyph glyph-name="lock" unicode="&#xf08a;" 
d="M24 6h-6v6h6v-6zM72 42v-42c0 -3.2998 -2.7002 -6 -6 -6h-60c-3.2998 0 -6 2.7002 -6 6v42c0 3.2998 2.7002 6 6 6h6v12c0 13.2002 10.7998 24 24 24s24 -10.7998 24 -24v-12h6c3.2998 0 6 -2.7002 6 -6zM22.7998 48h26.46v12
c0 7.32031 -5.87988 13.2002 -13.2002 13.2002c-7.31934 0 -13.1992 -5.87988 -13.1992 -13.2002v-12h-0.0605469zM66 42h-54v-42h54v42zM24 36v-6h-6v6h6zM24 24v-6h-6v6h6z" />
    <glyph glyph-name="logo-gist" unicode="&#xf08b;" 
d="M18.0479 50.4766v3.83984h13.5166v-21.8496c-2.99512 -1.41992 -7.4873 -2.45703 -13.7852 -2.45703c-13.5166 0 -17.7793 10.3291 -17.7793 23.1553c0 12.8252 4.33887 23.1553 17.7793 23.1553c6.2207 0 10.1377 -1.26758 12.5947 -2.53516v-4.03125
c-4.68457 1.91992 -7.67969 2.80273 -12.5947 2.80273c-9.86914 0 -13.3633 -8.48633 -13.3633 -19.4307c0 -10.9434 3.49414 -19.3916 13.3252 -19.3916c3.41699 0 7.60254 0.268555 9.71484 1.30566v15.4365h-9.4082zM42.5859 36.1924v-0.0771484
c0 -2.07324 0.729492 -2.68848 2.57227 -2.68848v-3.41699c-4.37695 0 -6.60449 1.80469 -6.60449 6.60449v24.1152h4.03223v-24.5371zM43.5459 69.6768c0 -1.68945 -1.30566 -2.99512 -2.99512 -2.99512c-1.69043 0 -2.95703 1.30566 -2.95703 2.99512
s1.22852 2.99512 2.95703 2.99512c1.72754 0 2.99512 -1.30566 2.99512 -2.99512zM60.2109 47.8271h0.115234c8.52539 -0.767578 10.5605 -3.64746 10.5605 -8.56348c0 -4.64648 -2.91895 -9.25391 -12.0576 -9.25391c-2.87988 0 -7.02734 0.729492 -8.94727 1.49707
v3.61035c1.80469 -0.65332 4.68457 -1.38281 8.94727 -1.38281c6.2207 0 7.91016 2.64941 7.91016 5.45312c0 2.72656 -0.844727 4.64648 -6.79688 5.14551c-8.67871 0.767578 -10.4834 3.83984 -10.4834 7.9873c0 4.26172 2.76465 8.87012 11.2129 8.87012
c2.80371 0 5.99023 -0.345703 8.63965 -1.49805v-3.60938c-2.3418 0.768555 -4.68457 1.38281 -8.7168 1.38281c-5.95117 0 -7.21875 -2.18945 -7.21875 -5.14551c0 -2.65039 1.0752 -3.99414 6.83496 -4.49316zM93.1582 57.3115v-0.0380859v0.0771484h-9.29297v-18.7012
c0 -3.64746 2.03516 -5.14551 5.76074 -5.14551c0.767578 0 1.6123 0 2.3418 0.115234v-3.41797c-0.652344 -0.115234 -1.91992 -0.191406 -2.64941 -0.191406c-5.03027 0 -9.59961 2.30371 -9.59961 8.17871v19.2002h-5.99121v1.84375l5.99121 1.68945v8.10254
l4.14648 1.19043v-9.60059h9.29297v-3.30273z" />
    <glyph glyph-name="logo-github" unicode="&#xf08c;" 
d="M39.5303 58.3359h-0.0419922c0.0185547 0 0.03125 -0.0214844 0.0507812 -0.0234375h0.0126953l-0.0214844 0.0214844v0.00195312zM39.5391 58.3105v0.00390625c0.171875 -0.0302734 0.311523 -0.197266 0.311523 -0.37207v-0.0117188v-3.2002
c0 -0.149414 -0.0634766 -0.298828 -0.192383 -0.34082c-0.212891 -0.107422 -1.57812 -0.469727 -2.70898 -0.469727c-2.47461 0 -6.10156 0.533203 -6.10156 5.73828v6.99805h-2.36719c-0.192383 0 -0.363281 0.170898 -0.363281 0.405273v2.90137
c0 0.170898 0.106445 0.319336 0.277344 0.362305c0.149414 0.0214844 2.47461 0.597656 2.47461 0.597656v4.62891c0 0.170898 0.106445 0.277344 0.298828 0.277344h4.6084c0.191406 0 0.297852 -0.106445 0.297852 -0.277344v-4.50098h3.39258
c0.170898 0 0.34082 -0.170898 0.34082 -0.362305v-3.62695c0 -0.234375 -0.149414 -0.405273 -0.34082 -0.405273h-3.39258v-6.68164c0 -1.00293 0.576172 -1.77051 2.24023 -1.77051c0.527344 0 1.02637 0.104492 1.22461 0.106445zM90.0908 63.0078
c0 3.86133 -1.55762 4.37305 -3.2002 4.20312c-1.28027 -0.0859375 -2.30371 -0.725586 -2.30371 -0.725586v-7.50977s1.04492 -0.724609 2.60254 -0.767578c2.19727 -0.0644531 2.90137 0.725586 2.90137 4.7998zM95.2744 63.3496
c0 -7.31738 -2.36816 -9.4082 -6.50684 -9.4082c-3.49805 0 -5.37598 1.77051 -5.37598 1.77051s-0.0849609 -0.981445 -0.191406 -1.10938c-0.0644531 -0.12793 -0.170898 -0.170898 -0.298828 -0.170898h-3.15723c-0.213867 0 -0.405273 0.170898 -0.405273 0.363281
l0.0429688 23.7012c0 0.192383 0.169922 0.362305 0.362305 0.362305h4.54395c0.192383 0 0.362305 -0.169922 0.362305 -0.362305v-8.04297s1.75 1.13086 4.30957 1.13086l-0.0214844 0.0429688c2.56055 0 6.33594 -0.959961 6.33594 -8.27734zM76.6719 71.0508
c0.234375 0 0.405273 -0.170898 0.405273 -0.362305l-0.0419922 -15.9365c0 -0.192383 -0.128906 -0.362305 -0.363281 -0.362305h-2.8584c-0.149414 0 -0.298828 0.0849609 -0.341797 0.191406c-0.0634766 0.12793 -0.169922 0.959961 -0.169922 0.959961
s-2.41113 -1.64258 -5.37598 -1.64258c-3.60547 0 -6.22949 1.17383 -6.22949 5.86719v10.9014c0 0.191406 0.169922 0.362305 0.362305 0.362305h4.56543c0.192383 0 0.362305 -0.170898 0.362305 -0.362305v-10.1338c0 -1.59961 0.469727 -2.3252 2.06934 -2.3252
c1.60059 0 2.77344 0.832031 2.77344 0.832031v11.6055c0 0.234375 0.12793 0.405273 0.363281 0.405273h4.47949zM26.1123 71.0723c0.191406 0 0.362305 -0.170898 0.362305 -0.363281v-15.7227c0 -0.383789 -0.106445 -0.575195 -0.533203 -0.575195h-4.0957
c-0.363281 0 -0.640625 0.148438 -0.640625 0.575195v15.6592c0 0.234375 0.170898 0.426758 0.363281 0.426758h4.54395zM23.8721 78.2822c1.59961 0 2.90137 -1.30078 2.90137 -2.94336s-1.30176 -2.94434 -2.90137 -2.94434
c-1.64258 0 -2.94434 1.30176 -2.94434 2.94434s1.30176 2.94336 2.94434 2.94336zM59.0508 78.8164c0.192383 0 0.362305 -0.170898 0.362305 -0.363281v-23.7012c0 -0.192383 -0.169922 -0.362305 -0.362305 -0.362305h-4.54395
c-0.192383 0 -0.363281 0.169922 -0.363281 0.362305l0.0429688 10.1338h-7.06152v-10.1338c0 -0.192383 -0.169922 -0.362305 -0.362305 -0.362305h-4.54395c-0.170898 0 -0.362305 0.169922 -0.362305 0.362305v23.7012c0 0.192383 0.169922 0.363281 0.362305 0.363281
h4.54395c0.192383 0 0.362305 -0.170898 0.362305 -0.363281v-8.72559h7.06152v8.72559c0 0.192383 0.170898 0.363281 0.363281 0.363281h4.50098zM18.7949 68.3203v-12.2461c0 -0.0849609 -0.0214844 -0.234375 -0.12793 -0.277344
c0 0 -2.66699 -1.89844 -7.06152 -1.89844c-5.3125 0 -11.6055 1.66406 -11.6055 12.6299c0 10.9648 5.50391 13.2266 10.8799 13.2051c4.65039 0 6.52832 -1.04492 6.82715 -1.2373c0.0849609 -0.106445 0.12793 -0.192383 0.12793 -0.298828l-0.896484 -3.79688
c0 -0.192383 -0.191406 -0.426758 -0.426758 -0.363281c-0.767578 0.235352 -1.91992 0.704102 -4.62891 0.704102c-3.13574 0 -6.50684 -0.895508 -6.50684 -7.95703s3.2002 -7.89355 5.50391 -7.89355c1.96289 0 2.66699 0.234375 2.66699 0.234375v4.90723h-3.13574
c-0.235352 0 -0.40625 0.170898 -0.40625 0.362305v3.92578c0 0.191406 0.170898 0.362305 0.40625 0.362305h7.97852c0.234375 0 0.405273 -0.170898 0.405273 -0.362305z" />
    <glyph glyph-name="mail" unicode="&#xf08d;" 
d="M0 60c0 3.2998 2.7002 6 6 6h72c3.2998 0 6 -2.7002 6 -6v-48c0 -3.2998 -2.7002 -6 -6 -6h-72c-3.2998 0 -6 2.7002 -6 6v48zM78 60h-72l36 -30zM6 51v-36l24 18zM12 12h60l-21 18l-9 -9l-9 9zM78 15v36l-24 -18z" />
    <glyph glyph-name="mail-read" unicode="&#xf08e;" 
d="M36 54h-12v6h12v-6zM54 48v-6h-30v6h30zM84 50.8799v-50.8799c0 -3.2998 -2.7002 -6 -6 -6h-72c-3.2998 0 -6 2.7002 -6 6v50.8799c0 1.98047 0.959961 3.78027 2.51953 4.86035l9.48047 6.7793v3.48047c0 3.2998 2.7002 6 6 6h7.2002l16.7998 12l16.7998 -12h7.2002
c3.2998 0 6 -2.7002 6 -6v-3.48047l9.48047 -6.7793c1.61914 -1.14062 2.51953 -2.87988 2.51953 -4.86035zM18 39l24 -15l24 15v27h-48v-27zM6 3l27 18l-27 18v-36zM72 0l-30 18l-30 -18h60zM78 39l-27 -18l27 -18v36z" />
    <glyph glyph-name="mark-github" unicode="&#xf08f;" 
d="M48 84c26.5195 0 48 -21.4805 48 -48c-0.00488281 -19.0459 -14.6543 -39.4482 -32.7002 -45.54c-2.39941 -0.479492 -3.2998 1.02051 -3.2998 2.28027c0 1.62012 0.0595703 6.7793 0.0595703 13.2002c0 4.5 -1.5 7.37988 -3.23926 8.87988
c10.6797 1.19922 21.8994 5.2793 21.8994 23.6992c0 5.28027 -1.85938 9.54004 -4.91992 12.9004c0.480469 1.2002 2.16016 6.12012 -0.479492 12.7197c0 0 -4.02051 1.32031 -13.2002 -4.91992c-3.83984 1.08008 -7.91992 1.62012 -12 1.62012
s-8.16016 -0.540039 -12 -1.62012c-9.17969 6.18066 -13.2002 4.91992 -13.2002 4.91992c-2.63965 -6.59961 -0.959961 -11.5195 -0.479492 -12.7197c-3.06055 -3.36035 -4.9209 -7.67969 -4.9209 -12.9004c0 -18.3594 11.1602 -22.5 21.8408 -23.6992
c-1.37988 -1.2002 -2.64062 -3.30078 -3.06055 -6.41992c-2.75977 -1.26074 -9.66016 -3.30078 -13.9795 3.95996c-0.900391 1.43945 -3.60059 4.97949 -7.37988 4.91992c-4.02051 -0.0605469 -1.62012 -2.28027 0.0595703 -3.18066
c2.04004 -1.13965 4.37988 -5.39941 4.91992 -6.7793c0.959961 -2.7002 4.08008 -7.86035 16.1396 -5.64062c0 -4.01953 0.0605469 -7.7998 0.0605469 -8.93945c0 -1.25977 -0.900391 -2.7002 -3.2998 -2.28027c-19.0801 6.36035 -32.8203 24.2998 -32.8203 45.54
c0 26.5195 21.4805 48 48 48z" />
    <glyph glyph-name="markdown" unicode="&#xf090;" 
d="M89.0996 66c3.78027 0 6.90039 -3.12012 6.84082 -6.90039v-46.1992c0 -3.78027 -3.06055 -6.90039 -6.90039 -6.90039h-82.1396c-3.78027 0 -6.90039 3.12012 -6.90039 6.95996v46.1396c0 3.78027 3.12012 6.90039 6.90039 6.90039h82.1992zM54 18v36h-12l-9 -12l-9 12
h-12v-36h12v18l9 -11.5195l9 11.5195v-18h12zM71.9404 15l15.0596 21h-9v18h-12v-18h-9z" />
    <glyph glyph-name="megaphone" unicode="&#xf091;" 
d="M60 78c3.12012 0 6 -2.51953 6 -6v-66c0 -3.48047 -2.87988 -6 -6 -6c-1.08008 0 -2.16016 0.299805 -3.12012 0.839844c-4.74023 2.87988 -12.8398 8.7002 -20.8799 13.8604v-20.7002h-12v27.54c-2.16016 1.08008 -4.2002 1.97949 -6 2.45996
c-8.21973 0 -18 4.01953 -18 15s9.71973 15 18 15c9 2.51953 30.2402 17.8799 38.8799 23.1602c0.959961 0.540039 2.10059 0.839844 3.12012 0.839844zM60 6v66c-2.21973 -1.37988 -5.51953 -3.54004 -9.17969 -6c-0.959961 -0.660156 -1.86035 -1.2002 -2.82031 -1.86035
v-50.0996c1.01953 -0.719727 2.04004 -1.37988 3 -2.04004c3.66016 -2.51953 6.71973 -4.62012 9 -6zM72 42h24v-6h-24v6zM72 30l24 -12v-6l-24 12v6zM96 66v-6l-24 -12v6z" />
    <glyph glyph-name="mention" unicode="&#xf092;" 
d="M39.4805 -6c-21.9609 0 -39.4805 13.7402 -39.4805 40.0195c0 30 21.96 49.9805 46.9805 49.9805c22.5596 0 37.0195 -15.6602 37.0195 -37.5c0 -19.9805 -12.5996 -30 -22.6201 -30c-6.24023 0 -11.2197 3.05957 -11.8799 8.7002
c-3.78027 -4.32031 -8.75977 -7.5 -13.7998 -7.5c-8.16016 0 -13.7998 5.63965 -13.7998 15.6602c0 11.9395 8.81934 26.2793 21.96 26.2793c3.71973 0 6.89941 -1.19922 9.35938 -4.97949l0.660156 4.32031h6.2998l-4.37988 -22.5
c-1.85938 -8.76074 0 -13.1406 6.2998 -13.1406c6.95996 0 15 8.82031 15 23.1602c0 18.0596 -10.6191 31.2002 -31.3193 31.2002c-20.1006 0 -39.4805 -16.8604 -39.4805 -43.0801c0 -21.8398 14.46 -34.3203 33.8398 -34.3203c6.84082 0 13.1406 1.86035 18.1807 4.98047
l2.51953 -5.64062c-6.24023 -3.7793 -13.8594 -5.63965 -21.3594 -5.63965zM37.6201 24v-0.0595703c3.17969 0 6.89941 1.91992 10.6797 6.2998l3.12012 18.1201c-2.45996 3.7793 -4.37988 4.97949 -7.5 4.97949c-8.82031 0 -14.46 -10.6201 -14.46 -19.3203
c0 -6.89941 3.78027 -10.0195 8.16016 -10.0195z" />
    <glyph glyph-name="milestone" unicode="&#xf093;" 
d="M48 72h-12v12h12v-12zM72 42h-60c-3.2998 0 -6 2.7002 -6 6v12c0 3.2998 2.7002 6 6 6h60l12 -12zM48 60h-12v-12h12v12zM36 -12v48h12v-48h-12z" />
    <glyph glyph-name="mirror" unicode="&#xf094;" 
d="M93 55.7998c1.7998 -1.13965 3 -2.75977 3 -4.7998v-63l-45 24l-45 -24v63c0 2.09961 1.2002 3.66016 3 4.7998l42 28.2002zM90 -3v54l-36 24v-27h-6v27l-36 -24v-54l36 19.5v7.5h6v-7.5zM36 42h30v12l18 -18l-18 -18v12h-30v-12l-18 18l18 18v-12z" />
    <glyph glyph-name="mortar-board" unicode="&#xf095;" 
d="M46.8477 27.5703h-0.120117c0.293945 -0.0751953 0.777344 -0.135742 1.08008 -0.135742s0.787109 0.0605469 1.08008 0.135742l22.9805 7.13965v-15c0 -6 -10.7998 -9 -24 -9s-24 3 -24 9s-24 63 0 15zM48.5283 65.9102l-0.0605469 -0.0605469l45.7803 -14.3398
c0.823242 -0.249023 1.49219 -1.14941 1.49219 -2.00977s-0.668945 -1.76074 -1.49219 -2.00977l-45.8398 -14.2803c-0.360352 -0.120117 -0.839844 -0.120117 -1.2002 0l-29.3398 9.17969v-8.69922c1.7998 -1.02051 3 -2.88086 3 -5.16016
c0 -1.14062 -0.360352 -2.16016 -0.839844 -3c0.540039 -0.839844 0.839844 -1.86035 0.839844 -3v-15.4805c0 -3.2998 -12 -3.2998 -12 0v15.4805c0 1.13965 0.359375 2.16016 0.839844 3c-0.540039 0.839844 -0.839844 1.85938 -0.839844 3
c0 2.16016 1.2002 4.13965 3 5.16016v10.6191l-10.3799 3.30078c-0.824219 0.249023 -1.49219 1.14941 -1.49219 2.00977s0.667969 1.76074 1.49219 2.00977l45.8398 14.2803c0.162109 0.0498047 0.430664 0.0898438 0.599609 0.0898438
c0.169922 0 0.438477 -0.0400391 0.600586 -0.0898438zM47.9883 46.71c3.2998 0 6 1.32031 6 3s-2.7002 3 -6 3s-6 -1.32031 -6 -3s2.7002 -3 6 -3z" />
    <glyph glyph-name="mute" unicode="&#xf096;" 
d="M48 67.5v-62.2803c0 -4.01953 -4.86035 -6 -7.67969 -3.17969l-22.3203 22.3203h-12c-3.2998 0 -6 2.69922 -6 6v12c0 3.2998 2.7002 6 6 6h12l22.3203 22.3193c2.81934 2.82031 7.67969 0.839844 7.67969 -3.17969zM93.1797 48.1797l-11.8193 -11.8193l11.8193 -11.8203
l-6.35938 -6.36035l-11.8203 11.8203l-11.8203 -11.8203l-6.35938 6.36035l11.8193 11.8203l-11.8193 11.8193l6.35938 6.36035l11.8203 -11.8203l11.8203 11.8203z" />
    <glyph glyph-name="no-newline" unicode="&#xf097;" 
d="M96 54v-18c0 -3.2998 -2.7002 -6 -6 -6h-18v-12l-18 18l18 18v-12h12v12h12zM48 36c0 -13.2002 -10.7998 -24 -24 -24s-24 10.7998 -24 24s10.7998 24 24 24s24 -10.7998 24 -24zM9 26.04l24.96 24.96c-2.87988 1.86035 -6.2998 3 -9.95996 3
c-9.95996 0 -18 -8.04004 -18 -18c0 -3.66016 1.13965 -7.01953 3 -9.95996zM42 36c0 3.66016 -1.13965 7.01953 -3 9.95996l-24.96 -24.96c2.87988 -1.86035 6.2998 -3 9.95996 -3c9.95996 0 18 8.04004 18 18z" />
    <glyph glyph-name="note" unicode="&#xf098;" 
d="M18 24v6h24v-6h-24zM18 36v6h36v-6h-36zM18 48v6h48v-6h-48zM78 12v54h-72v-54h72zM6 72h72c3.2998 0 6 -2.7002 6 -6v-54c0 -3.2998 -2.7002 -6 -6 -6h-72c-3.2998 0 -6 2.7002 -6 6v54c0 3.2998 2.7002 6 6 6z" />
    <glyph glyph-name="octoface" unicode="&#xf099;" 
d="M88.2002 51.96c4.85938 -5.21973 7.7998 -11.9404 7.7998 -20.0996c0 -30.9004 -20.2197 -37.8604 -48.1201 -37.8604c-27.8994 0 -47.8799 6.95996 -47.8799 37.8604c0 8.15918 2.94043 14.8799 7.7998 20.0996c-0.780273 1.91992 -3.2998 9.54004 0.780273 19.8604
c0 0 6.2998 2.04004 20.6396 -7.80078c6 1.68066 12.4199 1.9209 18.7803 1.9209s12.7803 -0.240234 18.7803 -1.9209c14.3398 9.78027 20.6396 7.80078 20.6396 7.80078c4.08008 -10.3203 1.56055 -17.9404 0.780273 -19.8604zM48 -0.120117
c19.7998 0 35.8799 0.959961 35.8799 20.1006c0 4.61914 -2.21973 8.87988 -6.12012 12.4199c-6.47949 5.87988 -17.3398 2.75977 -29.7598 2.75977c-12.3604 0 -23.3398 3.12012 -29.7598 -2.75977c-3.83984 -3.54004 -6.12012 -7.86035 -6.12012 -12.4199
c0 -19.2002 16.0801 -20.1006 35.8799 -20.1006zM32.9404 29.9404c3.95996 0 7.19922 -4.74023 7.19922 -10.6807c0 -5.93945 -3.23926 -10.7402 -7.19922 -10.7402s-7.2002 4.86035 -7.2002 10.7402s3.24023 10.6807 7.2002 10.6807zM63.0596 29.9404
c4.02051 0 7.2002 -4.74023 7.2002 -10.6807c0 -5.93945 -3.24023 -10.7402 -7.2002 -10.7402s-7.19922 4.80078 -7.19922 10.7402c0 5.94043 3.23926 10.6807 7.19922 10.6807z" />
    <glyph glyph-name="organization" unicode="&#xf09a;" 
d="M96 6.00586c0 -2.63379 -2.7002 -6 -6 -6h-42.0303c-3.2334 0 -5.96387 2.68262 -5.96973 5.99414h-36c-3.24023 0 -6 3.36621 -6 6c0 15.8037 18 24 18 24s1.37402 2.4541 0 6c-5.0459 3.72559 -6.34766 3.54004 -6 18c0.347656 14.5137 8.20215 18 15 18
s14.6523 -3.48047 15 -18c0.347656 -14.46 -0.954102 -14.2744 -6 -18c-1.37402 -3.54004 0 -6 0 -6s9.29395 -4.26562 14.5195 -12.5283c2.35938 2.17773 6.60645 5.10449 9.48047 6.53418s1.37402 2.4541 0 6c-5.0459 3.71973 -6.34766 3.54004 -6 18
c0.347656 14.5137 8.20215 18 15 18s14.6221 -3.48633 14.9697 -18c0.354492 -14.46 -0.947266 -14.2803 -6 -18c-1.37402 -3.54004 0 -6 0 -6s18.0303 -8.19629 18.0303 -24z" />
    <glyph glyph-name="package" unicode="&#xf09b;" 
d="M6 55.6084c0 2.69922 1.7998 5.04004 4.5 5.81934l39 10.4404c0.411133 0.0742188 1.08301 0.134766 1.5 0.134766s1.08887 -0.0605469 1.5 -0.134766l39 -10.4404c2.7002 -0.779297 4.5 -3.12012 4.5 -5.81934v-44.8203c0 -2.7002 -1.7998 -5.04004 -4.5 -5.82031
l-39 -10.3799c-0.959961 -0.299805 -2.04004 -0.299805 -3 0l-39 10.3799c-2.7002 0.780273 -4.5 3.12012 -4.5 5.82031v44.8203zM48 1.06836v40.5l-36 9.65918v-40.6191zM12 57.2275v-0.00585938l39 -10.374l15 4.02051l-39 10.3799zM90 10.6016v40.6201l-12 -3.17969
v-14.6396l-12 -3.18066v14.6406l-12 -3.30078v-40.5zM78 54.042l12 3.17969l-39 10.3799l-12 -3.17969z" />
    <glyph glyph-name="paintcan" unicode="&#xf09c;" 
d="M36 84c19.8604 0 36 -16.1396 36 -36v-6c0 -3.2998 -2.7002 -6 -6 -6v-30c0 -6.59961 -13.4404 -12 -30 -12s-30 5.40039 -30 12v30c-3.2998 0 -6 2.7002 -6 6v6c0 19.8604 16.1396 36 36 36zM54 24c3.2998 0 6 2.7002 6 6v10.7998
c-5.45996 -2.93945 -14.1602 -4.7998 -24 -4.7998s-18.54 1.86035 -24 4.7998v-10.7998c0 -3.2998 2.7002 -6 6 -6v-6c0 -3.2998 2.7002 -6 6 -6s6 2.7002 6 6v3c0 1.67969 1.32031 3 3 3s3 -1.32031 3 -3v-12c0 -1.67969 1.32031 -3 3 -3s3 1.32031 3 3v15
c0 1.67969 1.32031 3 3 3s3 -1.32031 3 -3v-3c0 -1.67969 1.32031 -3 3 -3s3 1.32031 3 3v3zM36 42c10.0801 0 18.7197 2.45996 22.2598 6c-3.54004 3.54004 -12.1797 6 -22.2598 6s-18.7197 -2.45996 -22.2598 -6c3.54004 -3.54004 12.1797 -6 22.2598 -6zM36 60
c16.5596 0 30 -5.40039 30 -12c0 16.5596 -13.4404 30 -30 30s-30 -13.4404 -30 -30c0 6.66016 13.4404 12 30 12z" />
    <glyph glyph-name="pencil" unicode="&#xf09d;" 
d="M0 14.4482l48 48l18 -18l-48 -48h-18v18zM18 2.44824v6h-6v6h-6v-12h12zM79.7998 58.248l-7.7998 -7.7998l-18 18l7.7998 7.7998c0.966797 0.96875 2.8623 1.75488 4.23047 1.75488s3.2627 -0.786133 4.22949 -1.75488l9.54004 -9.54004
c2.33984 -2.33984 2.33984 -6.12012 0 -8.45996z" />
    <glyph glyph-name="person" unicode="&#xf09e;" 
d="M72 -0.0117188c0 -3.30566 -2.68262 -5.98828 -5.98828 -5.98828h-60.0059h-0.00585938c-3.31152 0 -6 2.68848 -6 6v0.00585938v5.99414c0 15.7979 24 24 24 24s1.37402 2.4541 0 6c-5.0459 3.71973 -5.66406 9.54004 -6 24c1.03809 14.4775 11.2021 18 18 18
s16.9619 -3.51562 18 -18c-0.335938 -14.46 -0.954102 -20.2803 -6 -24c-1.37402 -3.54004 0 -6 0 -6s24 -8.20215 24 -24v-6.01172z" />
    <glyph glyph-name="pin" unicode="&#xf09f;" 
d="M60 75.0361c0.0224609 1.63281 1.36621 2.95801 3 2.95801c0.704102 0 1.67188 -0.411133 2.16016 -0.917969l25.6797 -25.6797c1.98047 -1.98047 0.600586 -5.16016 -2.04004 -5.16016h-4.7998l-6 3l-18 -27v-22.8008
c-0.0224609 -1.63281 -1.36621 -2.95801 -3 -2.95801c-0.704102 0 -1.67188 0.411133 -2.16016 0.918945l-18.8398 18.8398l-30 -24l24 30l-18.8398 18.8398c-1.98047 1.97949 -0.600586 5.16016 2.04004 5.16016h22.7998l27 18l-3 6v4.7998z" />
    <glyph glyph-name="plug" unicode="&#xf0a0;" 
d="M84 48h-24v-18h24v-6h-24v-12h-12v6h-12c-6.12012 0 -10.5 5.04004 -12 12l-6 6c-6.66016 0 -12 -5.33984 -12 -12v-12h-6v12c0 9.95996 8.04004 18 18 18l6 6c1.37988 7.13965 5.82031 12 12 12h12v6h12v-12h24v-6z" />
    <glyph glyph-name="plus" unicode="&#xf0a1;" 
d="M72 30h-30v-30h-12v30h-30v12h30v30h12v-30h30v-12z" />
    <glyph glyph-name="plus-small" unicode="&#xf0a2;" 
d="M24 60v-18h18v-6h-18v-18h-6v18h-18v6h18v18h6z" />
    <glyph glyph-name="primitive-dot" unicode="&#xf0a3;" 
d="M0 36c0 13.2002 10.7998 24 24 24s24 -10.7998 24 -24s-10.7998 -24 -24 -24s-24 10.7998 -24 24z" />
    <glyph glyph-name="primitive-square" unicode="&#xf0a4;" 
d="M48 12h-48v48h48v-48z" />
    <glyph glyph-name="project" unicode="&#xf0a5;" 
d="M60 12v60h18v-60h-18zM36 24v48h18v-48h-18zM12 0v72h18v-72h-18zM6 -6h78v84h-78v-84zM84 84c3.31152 0 6 -2.68848 6 -6v-84c0 -3.31152 -2.68848 -6 -6 -6h-78c-3.31152 0 -6 2.68848 -6 6v84c0 3.31152 2.68848 6 6 6h78z" />
    <glyph glyph-name="pulse" unicode="&#xf0a6;" 
d="M69 33.5996h15v-12h-20.4004l-9.59961 9l-21.5996 -30.5996l-5.40039 32.4004l-5.40039 -10.8008h-21.5996v12h14.2803l18.7197 38.4004l6.59961 -41.4004l13.2002 18.6006z" />
    <glyph glyph-name="question" unicode="&#xf0a7;" 
d="M36 24h12v-12h-12v12zM60 45c0 -12.8398 -12 -15 -12 -15h-12c0 3.2998 2.7002 6 6 6h3c1.67969 0 3 1.32031 3 3v6c0 1.67969 -1.32031 3 -3 3h-6c-1.67969 0 -3 -1.32031 -3 -3v-3h-12c0 9 9 18 18 18s18 -6 18 -15zM42 70.2002
c-18.8398 0 -34.2002 -15.3604 -34.2002 -34.2002c0.0332031 -18.8457 15.3545 -34.167 34.2002 -34.2002c18.8398 0 34.2002 15.3604 34.2002 34.2002s-15.3604 34.2002 -34.2002 34.2002zM42 78c23.1602 0 42 -18.8398 42 -42s-18.8398 -42 -42 -42s-42 18.8398 -42 42
s18.8398 42 42 42z" />
    <glyph glyph-name="quote" unicode="&#xf0a8;" 
d="M36.96 60.96c-14.5801 -9.36035 -21.6602 -19.0195 -21.6602 -35.1602c0.959961 0.299805 1.7998 0.299805 2.64062 0.299805c7.61914 0 15 -5.15918 15 -14.46c0 -9.65918 -6.18066 -15.6592 -15 -15.6592c-11.4004 0 -17.9404 9.11914 -17.9404 25.5
c0 22.7998 10.5 39.1797 30.1201 50.5195zM78.96 60.96c-14.5801 -9.36035 -21.6602 -19.0195 -21.6602 -35.1602c0.959961 0.299805 1.7998 0.299805 2.64062 0.299805c7.61914 0 15 -5.15918 15 -14.46c0 -9.65918 -6.18066 -15.6592 -15 -15.6592
c-11.3408 0 -17.8809 9.11914 -17.8809 25.5c0 22.7998 10.5 39.1797 30.1201 50.5195l6.83984 -11.04h-0.0595703z" />
    <glyph glyph-name="radio-tower" unicode="&#xf0a9;" 
d="M28.6797 49.3203c-1.43945 -1.5 -3.89941 -1.5 -5.39941 0c-3.36035 3.47949 -5.10059 8.09961 -5.10059 12.6602c0 4.55957 1.68066 9.17969 5.10059 12.6592c0.719727 0.780273 1.73926 1.14062 2.7002 1.14062h0.0371094
c0.870117 0 2.0625 -0.510742 2.66211 -1.14062c1.5 -1.5 1.5 -3.95996 0 -5.51953c-1.91992 -1.98047 -2.87988 -4.56055 -2.87988 -7.13965c0 -2.58008 0.959961 -5.16016 2.87988 -7.14062c1.5 -1.5 1.5 -4.01953 0 -5.51953zM13.9199 82.8604
c0.618164 -0.636719 1.12012 -1.87305 1.12012 -2.75977c0 -0.915039 -0.52832 -2.17871 -1.17969 -2.82031c-4.08008 -4.2002 -6.12012 -9.7207 -6.12012 -15.2402c0 -5.52051 2.04004 -11.04 6.12012 -15.2402c1.5 -1.55957 1.5 -4.08008 0 -5.63965
c-1.5 -1.56055 -3.95996 -1.56055 -5.45996 0c-5.58008 5.75977 -8.40039 13.3203 -8.40039 20.8799c0 7.5 2.82031 15.0596 8.40039 20.8203c0.630859 0.629883 1.86719 1.1416 2.75977 1.1416c0.891602 0 2.12891 -0.511719 2.75977 -1.1416zM48.0596 52.2598
c-5.39941 0 -9.7793 4.37988 -9.71973 9.7207c0 5.36523 4.35449 9.71973 9.71973 9.71973c5.36621 0 9.7207 -4.35449 9.7207 -9.71973c0 -5.36621 -4.35449 -9.7207 -9.7207 -9.7207zM87.4805 82.7998c4.64355 -4.82715 8.43359 -14.1816 8.45996 -20.8799
c0 -7.55957 -2.82031 -15.1201 -8.40039 -20.8799c-0.631836 -0.630859 -1.86816 -1.14258 -2.75977 -1.14258c-0.892578 0 -2.12891 0.511719 -2.76074 1.14258c-1.5 1.55957 -1.5 4.08008 0 5.63965c4.08008 4.26074 6.12012 9.7207 6.12012 15.2402
c0 5.52051 -2.04004 11.04 -6.12012 15.2402c-1.5 1.55957 -1.5 4.08008 0 5.63965c0.615234 0.646484 1.83789 1.1709 2.73047 1.1709s2.11523 -0.524414 2.73047 -1.1709zM48.0596 44.46c2.45996 0 4.86035 0.599609 7.14062 1.7998l18.8398 -50.2197h-8.94043l-5.04004 6
h-24l-5.15918 -6h-8.94043l18.9004 50.2197c2.21973 -1.2002 4.73926 -1.7998 7.19922 -1.7998zM48 41.5801l-5.94043 -21.5996h12zM36.0596 8.04004h24l-6 6h-12zM67.2002 74.6396c0.616211 0.621094 1.8252 1.125 2.7002 1.125
c0.874023 0 2.08398 -0.503906 2.69922 -1.125c3.41992 -3.47949 5.10059 -8.09961 5.10059 -12.6592c0 -4.56055 -1.68066 -9.18066 -5.10059 -12.6602c-0.613281 -0.626953 -1.82324 -1.13477 -2.69922 -1.13477c-0.876953 0 -2.08691 0.507812 -2.7002 1.13477
c-1.5 1.5 -1.5 3.95996 0 5.51953c1.91992 1.98047 2.87988 4.56055 2.87988 7.14062c0 2.5791 -0.959961 5.15918 -2.87988 7.13965c-1.5 1.5 -1.5 4.01953 0 5.51953z" />
    <glyph glyph-name="reply" unicode="&#xf0aa;" 
d="M39 63c23.5195 -2.63965 48 -18.75 48 -60c-13.8721 30.3721 -28.5 36 -48 36v-21l-33 33l33 33v-21z" />
    <glyph glyph-name="repo" unicode="&#xf0ab;" 
d="M24 30h-6v6h6v-6zM24 48v-6h-6v6h6zM24 60v-6h-6v6h6zM24 72v-6h-6v6h6zM72 78v-72c0 -3.2998 -2.7002 -6 -6 -6h-30v-12l-9 9l-9 -9v12h-12c-3.2998 0 -6 2.7002 -6 6v72c0 3.2998 2.7002 6 6 6h60c3.2998 0 6 -2.7002 6 -6zM66 18h-60v-12h12v6h18v-6h30v12zM66 78h-54
v-54h54v54z" />
    <glyph glyph-name="repo-clone" unicode="&#xf0ac;" 
d="M90 84c3.2998 0 6 -2.7002 6 -6v-36c0 -3.2998 -2.7002 -6 -6 -6h-18v-6h-6v6h-6c-3.2998 0 -6 2.7002 -6 6v42h36zM66 42v6h-6v-6h6zM90 42v6h-18v-6h18zM90 54v24h-24v-24h24zM24 54h-6v6h6v-6zM24 66h-6v6h6v-6zM12 78v-54h60v-18c0 -3.2998 -2.7002 -6 -6 -6h-30v-12
l-9 9l-9 -9v12h-12c-3.2998 0 -6 2.7002 -6 6v72c0 3.2998 2.7002 6 6 6h42v-6h-36zM66 18h-60v-12h12v6h18v-6h30v12zM18 36h6v-6h-6v6zM24 42h-6v6h6v-6z" />
    <glyph glyph-name="repo-force-push" unicode="&#xf0ad;" 
d="M60 30h-12v-42h-12v42h-12l13.5 18h-13.5l18 24l18 -24h-13.5zM66 84c3.2998 0 6 -2.7002 6 -6v-72c0 -3.2998 -2.7002 -6 -6 -6h-12v6h12v12h-12v6h12v54h-54v-54h18v-6h-24v-12h24v-6h-24c-3.2998 0 -6 2.7002 -6 6v72c0 3.2998 2.7002 6 6 6h60z" />
    <glyph glyph-name="repo-forked" unicode="&#xf0ae;" 
d="M48 78h0.03125c6.60156 0 11.958 -5.35742 11.958 -11.958c0 -3.81543 -2.68262 -8.45801 -5.98926 -10.3623v-10.6797l-18 -18v-10.6797c3.30664 -1.9043 5.98926 -6.54688 5.98926 -10.3623c0 -6.60059 -5.35645 -11.958 -11.958 -11.958h-0.03125h-0.03125
c-6.60156 0 -11.958 5.35742 -11.958 11.958c0 3.81543 2.68262 8.45801 5.98926 10.3623v10.6797l-18 18v10.6797c-3.30664 1.9043 -5.98926 6.54688 -5.98926 10.3623c0 6.60059 5.35645 11.958 11.958 11.958h0.03125h0.03125c6.60156 0 11.958 -5.35742 11.958 -11.958
c0 -3.81543 -2.68262 -8.45801 -5.98926 -10.3623v-7.67969l12 -12l12 12v7.67969c-3.30664 1.9043 -5.98926 6.54688 -5.98926 10.3623c0 6.60059 5.35645 11.958 11.958 11.958h0.03125zM12 58.7998c3.90039 0 7.2002 3.2998 7.2002 7.2002s-3.2998 7.2002 -7.2002 7.2002
s-7.2002 -3.2998 -7.2002 -7.2002s3.24023 -7.2002 7.2002 -7.2002zM30 -1.2002c3.90039 0 7.2002 3.2998 7.2002 7.2002s-3.2998 7.2002 -7.2002 7.2002s-7.2002 -3.2998 -7.2002 -7.2002s3.24023 -7.2002 7.2002 -7.2002zM48 58.7998
c3.90039 0 7.2002 3.2998 7.2002 7.2002s-3.2998 7.2002 -7.2002 7.2002s-7.2002 -3.2998 -7.2002 -7.2002s3.24023 -7.2002 7.2002 -7.2002z" />
    <glyph glyph-name="repo-pull" unicode="&#xf0af;" 
d="M78 36v12h-36v12h36v12l18 -18zM24 72v-6h-6v6h6zM66 42h6v-36c0 -3.2998 -2.7002 -6 -6 -6h-30v-12l-9 9l-9 -9v12h-12c-3.2998 0 -6 2.7002 -6 6v72c0 3.2998 2.7002 6 6 6h60c3.2998 0 6 -2.7002 6 -6v-12h-6v12h-54v-54h54v18zM66 18h-60v-12h12v6h18v-6h30v12z
M24 48v-6h-6v6h6zM24 60v-6h-6v6h6zM18 30v6h6v-6h-6z" />
    <glyph glyph-name="repo-push" unicode="&#xf0b0;" 
d="M24 66h-6v6h6v-6zM18 54v6h6v-6h-6zM42 54l18 -24h-12v-42h-12v42h-12zM66 84c3.2998 0 6 -2.7002 6 -6v-72c0 -3.2998 -2.7002 -6 -6 -6h-12v6h12v12h-12v6h12l0.120117 54h-54.1201v-54h18v-6h-24v-12h24v-6h-24c-3.2998 0 -6 2.7002 -6 6v72c0 3.2998 2.7002 6 6 6h60
z" />
    <glyph glyph-name="report" unicode="&#xf0b1;" 
d="M0 72c-0 3.31152 2.68848 6 6 6h84c3.31152 0 6 -2.68848 6 -6v-54c0 -3.31152 -2.68848 -6 -6 -6h-48l-24 -24v24h-12c-3.31152 0 -6 2.68848 -6 6v54zM6 72v-54h18v-15l15 15h51v54h-84zM42 36h12v-12h-12v12zM42 66h12v-24h-12v24z" />
    <glyph glyph-name="rocket" unicode="&#xf0b2;" 
d="M73.0195 61.0195c1.25879 -1.26953 3.57031 -2.96289 5.16016 -3.7793c1.98047 -0.900391 4.02051 -1.56055 6.18066 -2.04004c-1.98047 -3.36035 -4.2002 -6.83984 -6.84082 -10.3203c-2.51953 -3.41992 -5.51953 -6.89941 -8.81934 -10.2002
c-4.2002 -4.13965 -10.8604 -7.97949 -14.7002 -10.6797v-18l-18 -18v18l12 12c-4.62012 -2.16016 -17.8799 -6.12012 -18 -6l-6 6c-0.120117 0.120117 3.95996 13.3799 6 18l-12 -12h-18l18 18.0596h18c2.7002 3.84082 6.48047 10.5 10.6797 14.7002
c3.30078 3.24023 6.66016 6.24023 10.1406 8.87988c3.41992 2.58008 6.89941 4.80078 10.3799 6.78027c0.419922 -2.16016 1.08008 -4.25977 2.04004 -6.12012c0.959961 -1.97949 2.16016 -3.66016 3.7793 -5.28027zM96 84c0 0 -0.540039 -2.28027 -1.7998 -6.36035
c-1.2002 -4.19922 -3.2998 -9.47949 -6.36035 -15.96c-4.2002 0.480469 -7.62012 1.98047 -9.95996 4.32031s-3.78027 5.63965 -4.2002 9.83984c6.48047 3.12012 11.7002 5.28027 15.8398 6.48047c4.2002 1.19922 6.48047 1.67969 6.48047 1.67969z" />
    <glyph glyph-name="rss" unicode="&#xf0b3;" 
d="M12 6h-12v12c6.66016 0 12 -5.33984 12 -12zM0 66c33.1201 0 60 -26.8799 60 -60h-6c0 29.8076 -24.1924 54 -54 54v6zM0 42c19.8604 0 36 -16.1396 36 -36h-6c0 16.5 -13.5 30 -30 30v6z" />
    <glyph glyph-name="ruby" unicode="&#xf0b4;" 
d="M78 48l-30 -30v42h18zM96 48l-48 -48l-48 48l24 24h48zM48 9l39 39l-18 18h-42l-18 -18z" />
    <glyph glyph-name="screen-full" unicode="&#xf0b5;" 
d="M78 24h6v-18c0 -3.28223 -2.71777 -6 -6 -6h-18v6h18v18zM6 24v-18h18v-6h-18c-3.28223 0 -6 2.71777 -6 6v18h6zM6 66v-18h-6v18c0 3.28223 2.71777 6 6 6h18v-6h-18zM12 60h60v-48h-60v48zM24 24h36v24h-36v-24zM60 72h18c3.28223 0 6 -2.71777 6 -6v-18h-6v18h-18v6z
" />
    <glyph glyph-name="screen-normal" unicode="&#xf0b6;" 
d="M12 60h-12v6h12v12h6v-12c0 -3.28223 -2.71777 -6 -6 -6zM12 12c3.28223 0 6 -2.71777 6 -6v-12h-6v12h-12v6h12zM66 24c0 -3.28223 -2.71777 -6 -6 -6h-36c-3.28223 0 -6 2.71777 -6 6v24c0 3.28223 2.71777 6 6 6h36c3.28223 0 6 -2.71777 6 -6v-24zM54 42h-24v-12h24
v12zM66 6c0 3.28223 2.71777 6 6 6h12v-6h-12v-12h-6v12zM72 66h12v-6h-12c-3.28223 0 -6 2.71777 -6 6v12h6v-12z" />
    <glyph glyph-name="search" unicode="&#xf0b7;" 
d="M94.2002 4.2002v0.0595703c0.96875 -0.966797 1.75488 -2.86133 1.75488 -4.22949s-0.786133 -3.26367 -1.75488 -4.23047c-1.08008 -1.25977 -2.7002 -1.7998 -4.2002 -1.7998s-3.05957 0.599609 -4.2002 1.7998l-22.9795 22.8604
c-5.94043 -4.2002 -13.0205 -6.66016 -20.8203 -6.66016c-19.8604 0 -36 16.1396 -36 36s16.1396 36 36 36s36 -16.1396 36 -36v-0.09375c0 -6.31152 -2.9834 -15.5967 -6.66016 -20.7266zM42 19.7998c15.54 0 28.2002 12.6602 28.2002 28.2002
s-12.6602 28.2002 -28.2002 28.2002s-28.2002 -12.6602 -28.2002 -28.2002s12.6602 -28.2002 28.2002 -28.2002z" />
    <glyph glyph-name="server" unicode="&#xf0b8;" 
d="M66 48c3.2998 0 6 -2.7002 6 -6v-12c0 -3.2998 -2.7002 -6 -6 -6h-60c-3.2998 0 -6 2.7002 -6 6v12c0 3.2998 2.7002 6 6 6h60zM12 30v12h-6v-12h6zM24 30v12h-6v-12h6zM36 30v12h-6v-12h6zM48 30v12h-6v-12h6zM66 78c3.2998 0 6 -2.7002 6 -6v-12
c0 -3.2998 -2.7002 -6 -6 -6h-60c-3.2998 0 -6 2.7002 -6 6v12c0 3.2998 2.7002 6 6 6h60zM12 60v12h-6v-12h6zM24 60v12h-6v-12h6zM36 60v12h-6v-12h6zM48 60v12h-6v-12h6zM66 66v6h-6v-6h6zM66 18c3.2998 0 6 -2.7002 6 -6v-12c0 -3.2998 -2.7002 -6 -6 -6h-60
c-3.2998 0 -6 2.7002 -6 6v12c0 3.2998 2.7002 6 6 6h60zM12 0v12h-6v-12h6zM24 0v12h-6v-12h6zM36 0v12h-6v-12h6zM48 0v12h-6v-12h6z" />
    <glyph glyph-name="settings" unicode="&#xf0b9;" 
d="M24 42h-6v30h6v-30zM18 0v18h6v-18h-6zM48 0v36h6v-36h-6zM78 0v12h6v-12h-6zM84 72v-36h-6v36h6zM54 72v-12h-6v12h6zM30 36c3.2998 0 6 -2.7002 6 -6s-2.7002 -6 -6 -6h-18c-3.2998 0 -6 2.7002 -6 6s2.7002 6 6 6h18zM60 54c3.2998 0 6 -2.7002 6 -6s-2.7002 -6 -6 -6
h-18c-3.2998 0 -6 2.7002 -6 6s2.7002 6 6 6h18zM90 30c3.2998 0 6 -2.7002 6 -6s-2.7002 -6 -6 -6h-18c-3.2998 0 -6 2.7002 -6 6s2.7002 6 6 6h18z" />
    <glyph glyph-name="shield" unicode="&#xf0ba;" 
d="M42 84l42 -12v-36.1201c0 -28.0195 -31.8604 -47.8799 -42 -47.8799s-42 19.8604 -42 47.8799v36.1201zM30 18h24l-6.83984 16.7998c-0.299805 1.37988 0.359375 2.75977 1.5 3.54004c3.35938 2.16016 5.33984 5.7002 5.33984 9.66016c0 6.54004 -5.63965 12 -12.1201 12
c-6.54004 0 -11.8799 -5.45996 -11.8799 -12c0 -3.95996 1.98047 -7.5 5.33984 -9.66016c0.865234 -0.554688 1.56738 -1.83984 1.56738 -2.86816c0 -0.186523 -0.0302734 -0.488281 -0.0673828 -0.671875z" />
    <glyph glyph-name="sign-in" unicode="&#xf0bb;" 
d="M42 43.5v-31.5h24v24h6v-24c0 -3.2998 -2.7002 -6 -6 -6h-24v-18l-32.7002 16.3203c-1.97949 1.01953 -3.2998 3.12012 -3.2998 5.45996v68.2197c0 3.2998 2.7002 6 6 6h54c3.2998 0 6 -2.7002 6 -6v-18h-6v18h-48l24 -12v-13.5l18 13.5v-12h24v-12h-24v-12z" />
    <glyph glyph-name="sign-out" unicode="&#xf0bc;" 
d="M72 30v12h-24v12h24v12l24 -18zM60 12v24h6v-24c0 -3.2998 -2.7002 -6 -6 -6h-24v-18.0596l-32.7002 16.3193c-1.97949 1.08008 -3.2998 3.12012 -3.2998 5.45996v68.2803c0 3.2998 2.7002 6 6 6h54c3.2998 0 6 -2.7002 6 -6v-18h-6v18h-48l24 -12v-54h24z" />
    <glyph glyph-name="smiley" unicode="&#xf0bd;" 
d="M48 84c26.5195 0 48 -21.4805 48 -48s-21.4805 -48 -48 -48s-48 21.4805 -48 48s21.4805 48 48 48zM76.8604 7.13965c3.71973 3.7207 6.65918 8.16016 8.69922 13.0205c2.16016 4.97949 3.18066 10.3203 3.18066 15.8398s-1.02051 10.8604 -3.18066 15.8398
c-2.04004 4.86035 -4.97949 9.2998 -8.69922 13.0205c-3.7207 3.71973 -8.16016 6.65918 -13.0205 8.69922c-4.97949 2.16016 -10.3203 3.18066 -15.8398 3.18066l-0.301758 0.000976562c-4.46777 0 -11.4297 -1.4248 -15.5381 -3.18164
c-4.86035 -2.04004 -9.2998 -4.97949 -13.0205 -8.69922c-3.71973 -3.7207 -6.65918 -8.16016 -8.69922 -13.0205c-2.16016 -4.97949 -3.18066 -10.3203 -3.18066 -15.8398c0 -0.0830078 -0.000976562 -0.21875 -0.000976562 -0.301758
c0 -4.46777 1.4248 -11.4297 3.18164 -15.5381c1.69531 -4.06543 5.59277 -9.89844 8.69922 -13.0205c3.7207 -3.71973 8.16016 -6.65918 13.0205 -8.69922c4.97949 -2.16016 10.3203 -3.18066 15.8398 -3.18066s10.8604 1.02051 15.8398 3.18066
c4.06934 1.68945 9.90234 5.58691 13.0205 8.69922zM24 43.2002v3.54004c0 3.95996 3.17969 7.13965 7.2002 7.13965h3.54004c3.95996 0 7.13965 -3.17969 7.13965 -7.13965v-3.54004c0 -4.02051 -3.17969 -7.2002 -7.13965 -7.2002h-3.54004
c-4.02051 0 -7.2002 3.17969 -7.2002 7.2002zM54 43.2002v3.54004c0 3.95996 3.17969 7.13965 7.2002 7.13965h3.54004c3.95996 0 7.13965 -3.17969 7.13965 -7.13965v-3.54004c0 -4.02051 -3.17969 -7.2002 -7.13965 -7.2002h-3.54004
c-4.02051 0 -7.2002 3.17969 -7.2002 7.2002zM78 24c-4.32031 -11.2803 -17.46 -18 -30 -18s-25.6797 6.78027 -30 18c-0.839844 2.33984 1.37988 6 3.95996 6h51.54c2.45996 0 5.33984 -3.66016 4.5 -6z" />
    <glyph glyph-name="squirrel" unicode="&#xf0be;" 
d="M70.5 78c13.2598 0 24 -10.7402 24 -24c0 -18 -13.3799 -16.0801 -18 -12s-12.6602 -3.24023 -6 -12c3.41992 -4.44043 6 -10.0801 6 -15.1797c0 -14.8203 -12 -20.8203 -30 -20.8203h-36s0 6 6 6h6s-18.54 16.7998 0 24c-12 0 -12 6 -18 6s-6 6 0 6
s10.6797 -6.78027 15.7197 -1.74023c1.2002 1.2002 2.52051 5.64062 -2.81934 5.94043c-5.64062 -1.02051 -13.6201 0.599609 -14.8203 2.58008c0.120117 15.4795 11.0996 19.3193 11.0996 19.3193l0.780273 3.48047s1.74023 0.240234 3.36035 -1.62012
c0.479492 1.37988 1.7998 2.04004 1.7998 2.04004s3.17969 -0.959961 2.87988 -3.95996c7.37988 0 24 -11.04 24 -38.04c3 18.2998 0 24.8398 0 36.4805c0 9.65918 10.7402 17.5195 24 17.5195zM13.5 48c1.67969 0 3 1.32031 3 3s-1.32031 3 -3 3s-3 -1.32031 -3 -3
s1.32031 -3 3 -3z" />
    <glyph glyph-name="star" unicode="&#xf0bf;" 
d="M84 48l-21.5996 -19.5596l5.58008 -28.4404l-25.9805 13.9805l-25.9805 -13.9805l5.58008 28.4404l-21.5996 19.5596l29.4004 3.83984l12.5996 26.1602l12.5996 -26.1602z" />
    <glyph glyph-name="stop" unicode="&#xf0c0;" 
d="M60 78l24 -24v-36l-24 -24h-36l-24 24v36l24 24h36zM78 21v30l-21 21h-30l-21 -21v-30l21 -21h30zM36 60h12v-30h-12v30zM36 24h12v-12h-12v12z" />
    <glyph glyph-name="sync" unicode="&#xf0c1;" 
d="M61.416 39.5996l10.5 -2.04004c0.0224609 -0.461914 0.0400391 -1.21387 0.0400391 -1.67676c0 -8.13184 -4.69531 -19.3682 -10.4805 -25.083c-12.8398 -12.6602 -32.8799 -13.6797 -47.04 -3.24023l-7.85938 -7.55957l-3.60059 25.2002l25.8008 -3.60059
l-7.02051 -6.83984c3.57715 -2.32422 9.94336 -4.21094 14.209 -4.21094c5.87695 0 14.0537 3.33789 18.251 7.45117c4.13574 4.04395 7.49121 12.0195 7.49121 17.8027c0 1.05469 -0.129883 2.75586 -0.291016 3.79688zM17.7363 54
c-4.13574 -4.05957 -7.49121 -12.0586 -7.49121 -17.8535c0 -1.05664 0.129883 -2.76172 0.291016 -3.80664l-10.5 2.10059c-0.419922 9.65918 2.93945 19.3799 10.3799 26.7598c12.9004 12.6602 32.9404 13.6797 47.0996 3.24023l7.86035 7.55957l3.59961 -25.2002
l-25.7998 3.60059l7.02051 6.83984c-3.57715 2.32422 -9.94336 4.21094 -14.21 4.21094c-5.87695 0 -14.0527 -3.33789 -18.25 -7.45117z" />
    <glyph glyph-name="tag" unicode="&#xf0c2;" 
d="M46.3799 73.6201l36.3604 -36.4199c0.96875 -0.966797 1.75488 -2.8623 1.75488 -4.23047s-0.786133 -3.2627 -1.75488 -4.22949l-27.54 -27.54c-2.33984 -2.33984 -6.12012 -2.33984 -8.45996 0l-36.3604 36.3594c-2.75977 2.82031 -4.37988 6.66016 -4.37988 10.6201
v14.8203c0 8.21973 6.78027 15 15 15h14.7598c3.95996 0 7.7998 -1.55957 10.6201 -4.37988zM14.2803 41.46l36.7793 -36.9004l28.3809 28.3809l-36.8408 36.7793c-1.7998 1.86035 -4.25977 2.82031 -6.7793 2.82031h-14.8203
c-5.21973 0 -9.54004 -4.25977 -9.54004 -9.54004v-14.7598c0 -2.58008 0.959961 -4.98047 2.82031 -6.78027zM18.0596 66h12v-12h-12.0596v12h0.0595703z" />
    <glyph glyph-name="tasklist" unicode="&#xf0c3;" 
d="M92.46 30h-46.9199c-3.54004 0 -3.54004 2.45996 -3.54004 6s0 6 3.54004 6h46.8604c3.54004 0 3.54004 -2.45996 3.54004 -6s0 -6 -3.54004 -6h0.0595703zM57.54 60c-3.54004 0 -3.54004 2.45996 -3.54004 6s0 6 3.54004 6h34.8604
c3.54004 0 3.54004 -2.45996 3.54004 -6s0 -6 -3.54004 -6h-34.8604zM0 60.54l8.45996 7.7998l9.54004 -9.54004l24.54 25.2002l8.45996 -8.45996l-33 -33zM45.54 12h46.8604c3.54004 0 3.54004 -2.45996 3.54004 -6s0 -6 -3.54004 -6h-46.8604
c-3.54004 0 -3.54004 2.45996 -3.54004 6s0 6 3.54004 6z" />
    <glyph glyph-name="telescope" unicode="&#xf0c4;" 
d="M45.54 30l18 -36h-6l-12 24v-30h-6v36l-12 -30h-6l12 30zM39.54 84v-6h-6v6h6zM27.54 66v-6h-6v6h6zM9.54004 78v-6h-6v6h6zM1.32031 30l-0.0605469 0.0595703l7.62012 5.16016l6.95996 -12l-8.33984 -3.95996c-1.37988 -0.660156 -3.05957 -0.179688 -3.83984 1.2002
l-3.2998 5.52051c-0.202148 0.378906 -0.367188 1.03613 -0.367188 1.4668c0 0.894531 0.594727 2.03809 1.32715 2.55273zM48.6602 62.3398h-0.0605469l10.6201 -18.3594l-37.9795 -18.1807l-7.37988 12.8398zM73.9805 54.6602
c0.839844 -1.56055 0.299805 -3.41992 -1.32031 -4.2002l-7.98047 -3.83984l-11.04 19.2002l7.2002 4.97949c0.421875 0.276367 1.17285 0.5 1.67578 0.5c0.970703 0 2.15527 -0.680664 2.64453 -1.51953z" />
    <glyph glyph-name="terminal" unicode="&#xf0c5;" 
d="M42 24h24v-6h-24v6zM24 18l-4.5 4.5l13.5 13.5l-13.5 13.5l4.5 4.5l18 -18zM84 66v-60c0 -3.2998 -2.7002 -6 -6 -6h-72c-3.2998 0 -6 2.7002 -6 6v60c0 3.2998 2.7002 6 6 6h72c3.2998 0 6 -2.7002 6 -6zM78 66h-72v-60h72v60z" />
    <glyph glyph-name="text-size" unicode="&#xf0c6;" 
d="M72.6396 35.5732l-8.10645 28.9072h-0.320312l-8 -28.9072h16.4268zM30.4004 29.9736c0 0 -5.44043 19.2529 -6.24023 21.9199h-0.426758l-6.02637 -21.9199h12.6934zM92.3203 9.33301h-12l-5.06738 17.334h-21.7061l-5.06641 -17.334h-12l-3.68066 12.4268h-17.4932
l-3.7334 -12.4268h-11.5732l17.5996 51.1475h13.334l11.5732 -33.8135l15.4131 46.666h13.4404l21.0127 -64h-0.0527344z" />
    <glyph glyph-name="three-bars" unicode="&#xf0c7;" 
d="M68.46 30h-64.9199c-3.54004 0 -3.54004 2.45996 -3.54004 6s0 6 3.54004 6h64.8604c3.54004 0 3.54004 -2.45996 3.54004 -6s0 -6 -3.54004 -6h0.0595703zM68.46 54h-64.9199c-3.54004 0 -3.54004 2.45996 -3.54004 6s0 6 3.54004 6h64.8604
c3.54004 0 3.54004 -2.45996 3.54004 -6s0 -6 -3.54004 -6h0.0595703zM3.54004 18h64.8604c3.54004 0 3.54004 -2.45996 3.54004 -6s0 -6 -3.54004 -6h-64.8604c-3.54004 0 -3.54004 2.45996 -3.54004 6s0 6 3.54004 6z" />
    <glyph glyph-name="thumbsdown" unicode="&#xf0c8;" 
d="M95.8799 37.0195v-0.0595703c0.240234 -0.419922 0.120117 -0.839844 0.120117 -1.2002c-0.179688 -7.01953 -4.91992 -11.8193 -11.8799 -11.8193h-12.2402l0.120117 -5.88086c0 -7.7998 -7.01953 -30.1191 -18 -30.1191c-3.48047 0 -7.01953 1.7998 -9.36035 4.61914
c-2.15918 2.52051 -3 5.52051 -2.51953 8.52051c1.5 8.82031 1.67969 13.6201 -3.78027 19.6201c-6 6.59961 -8.87988 9.2998 -14.3398 9.2998h-12c-6.36035 -0.120117 -12 5.63965 -12 12v24c0 6.36035 5.63965 12 12 12h10.3203l8.63965 5.16016
c0.900391 0.540039 1.98047 0.839844 3.17969 0.839844h37.8604c6.78027 0 17.04 -3 18.0596 -11.2803zM84.0596 29.8799h0.0605469c3.71973 0 5.82031 2.16016 6 6l-6 36l-0.120117 0.120117c-0.299805 4.13965 -7.62012 6 -12 6h-37.9805l-10.0195 -6v-36
c8.16016 0 12.6602 -4.5 18.7803 -11.2803c7.37988 -8.16016 6.83984 -15.3594 5.33984 -24.8398c-0.480469 -3 3 -6 6 -6c4.97949 0 12 16.3799 12 24l-0.179688 6.17969c0 4.14062 1.97949 5.82031 6.17969 5.82031h11.9395z" />
    <glyph glyph-name="thumbsup" unicode="&#xf0c9;" 
d="M84 0l0.0595703 0.0595703l6 36c-0.119141 3.84082 -2.21973 6 -6 6h-12c-4.13965 0 -6.11914 1.68066 -6.11914 5.82031l0.119141 6.17969c0 7.62012 -7.01953 24 -12 24c-3 0 -6.47949 -3 -6 -6c1.56055 -9.41992 2.10059 -16.6191 -5.2793 -24.7793
c-6.12012 -6.78027 -10.6201 -11.2803 -18.7803 -11.2803v-36l10.0195 -6h37.9805c4.37988 0 11.7002 1.86035 12 6zM84 48h0.0595703c6.95996 0 11.8203 -4.7998 12 -11.8203c0 -0.359375 0 -0.719727 -0.119141 -1.19922l-5.88086 -35.7002
c-0.959961 -8.28027 -11.2197 -11.2803 -18 -11.2803h-37.9795c-1.13965 0 -2.16016 0.299805 -3.12012 0.839844l-8.63965 5.16016h-10.3203c-6.36035 0 -12 5.63965 -12 12v24c0 6.36035 5.63965 12 12 11.9404h12c5.45996 0 8.33984 2.75977 14.3398 9.2998
c5.45996 6 5.28027 10.7998 3.78027 19.6797c-0.480469 3 0.360352 6 2.51953 8.45996c2.34082 2.82031 5.87988 4.62012 9.36035 4.62012c10.9805 0 18 -22.3203 18 -30.1201l-0.120117 -5.87988h12.1201z" />
    <glyph glyph-name="tools" unicode="&#xf0ca;" 
d="M26.8799 40.3799c-7.13965 -2.33984 -15.2402 -0.660156 -20.8799 5.21973c-5.40039 5.52051 -7.13965 13.3809 -5.28027 20.46l11.5801 -12l11.3398 3.12012l3.06055 11.7607l-11.5801 12c6.83984 1.85938 14.46 0.0595703 19.8604 -5.45996
c5.39941 -5.58008 7.13965 -13.5 5.21973 -20.6406c-1.98047 1.74023 2.58008 -2.7002 2.58008 -2.7002l-10.1406 -10.7998l5.28027 -5.45996l-3.36035 -3.47949s-6.11914 6.41992 -7.67969 7.97949zM65.5195 28.7402l22.7402 -23.5801
c3.78027 -3.90039 3.78027 -10.2002 0 -14.1006c-1.91992 -1.97949 -4.37988 -2.93945 -6.83984 -2.93945s-4.97949 0.959961 -6.83984 2.93945l-23.04 23.8809zM96 68.8203l-43.3203 -44.7607l-5.2793 5.45996l-25.9199 -26.7598l-3.06055 -6.12012l-13.2002 -8.63965
l-2.09961 2.21973l8.33984 13.6201l5.94043 3.17969l25.8594 26.7607l-5.2793 5.45996l43.3193 44.7598z" />
    <glyph glyph-name="trashcan" unicode="&#xf0cb;" 
d="M66 72c3.2998 0 6 -2.7002 6 -6v-6c0 -3.2998 -2.7002 -6 -6 -6v-54c0 -3.2998 -2.7002 -6 -6 -6h-42c-3.2998 0 -6 2.7002 -6 6v54c-3.2998 0 -6 2.7002 -6 6v6c0 3.2998 2.7002 6 6 6h12c0 3.2998 2.7002 6 6 6h18c3.2998 0 6 -2.7002 6 -6h12zM60 0v54h-6v-48h-6v48
h-6v-48h-6v48h-6v-48h-6v48h-6v-54h42zM66 60v6h-54v-6h54z" />
    <glyph glyph-name="triangle-down" unicode="&#xf0cc;" 
d="M0 54h72l-36 -36z" />
    <glyph glyph-name="triangle-left" unicode="&#xf0cd;" 
d="M36 72v-72l-36 36z" />
    <glyph glyph-name="triangle-right" unicode="&#xf0ce;" 
d="M0 0v72l36 -36z" />
    <glyph glyph-name="triangle-up" unicode="&#xf0cf;" 
d="M72 18h-72l36 36z" />
    <glyph glyph-name="unfold" unicode="&#xf0d0;" 
d="M69 39l15 -15c0 -3.2998 -2.7002 -6 -6 -6h-24v6h21l-12 12h-42l-12 -12h21v-6h-24c-3.2998 0 -6 2.7002 -6 6l15 15l-15 15c0 3.2998 2.7002 6 6 6h24v-6h-21l12 -12h42l12 12h-21v6h24c3.2998 0 6 -2.7002 6 -6zM36 48v18h-12l18 18l18 -18h-12v-18h-12zM48 30v-18h12
l-18 -18l-18 18h12v18h12z" />
    <glyph glyph-name="unmute" unicode="&#xf0d1;" 
d="M72 36.2402c0 -6.54004 -2.7002 -12.54 -7.01953 -16.9805l-4.02051 4.02051c3.2998 3.35938 5.33984 7.85938 5.33984 12.96c0 5.09961 -2.04004 9.66016 -5.33984 12.96l4.02051 4.01953c3.875 -3.87109 7.01953 -11.459 7.01953 -16.9365v-0.0429688zM46.3203 70.6797
c2.81934 2.82031 7.67969 0.839844 7.67969 -3.17969v-62.2803c0 -4.01953 -4.86035 -6 -7.67969 -3.17969l-22.3203 22.3203h-12c-3.2998 0 -6 2.69922 -6 6v12c0 3.2998 2.7002 6 6 6h12zM81.96 70.2002v0.120117c8.7002 -8.64062 14.04 -20.6406 14.04 -33.96v-0.105469
c0 -10.9512 -6.29004 -26.1182 -14.04 -33.8545l-4.01953 4.01953c7.67969 7.67969 12.3594 18.2402 12.3594 29.8799v0.132812c0 9.62793 -5.53711 22.9551 -12.3594 29.7471zM73.5 61.7402c6.48047 -6.54004 10.5 -15.6006 10.5 -25.5v-0.0429688
c0 -8.19434 -4.7041 -19.5449 -10.5 -25.3369l-4.13965 4.01953c5.51953 5.40039 8.87988 13.0205 8.87988 21.3604v0.0488281c0 6.93066 -3.97852 16.5312 -8.87988 21.4307z" />
    <glyph glyph-name="unverified" unicode="&#xf0d2;" 
d="M94.0801 41.5801c2.63965 -3.2998 2.63965 -7.98047 0 -11.2803l-6.48047 -8.04004c-1.01953 -1.31934 -1.7998 -2.87988 -1.97949 -4.67969l-1.13965 -10.2002c-0.480469 -4.2002 -3.78027 -7.5 -7.98047 -7.97949l-10.2002 -1.14062
c-1.74023 -0.179688 -3.2998 -0.839844 -4.62012 -1.85938l-8.04004 -6.48047c-3.2998 -2.63965 -7.97949 -2.63965 -11.2793 0l-8.04004 6.48047c-1.32031 1.01953 -2.87988 1.7998 -4.68066 1.97949l-10.1992 1.13965c-4.2002 0.480469 -7.5 3.78027 -7.98047 7.98047
l-1.13965 10.2002c-0.180664 1.74023 -0.839844 3.2998 -1.86035 4.62012l-6.47949 8.04004c-2.64062 3.2998 -2.64062 7.97949 0 11.2793l6.47949 8.04004c1.02051 1.32031 1.7998 2.87988 1.98047 4.68066l1.13965 10.1992c0.479492 4.2002 3.78027 7.5 7.97949 7.98047
l10.2002 1.13965c1.74023 0.180664 3.2998 0.839844 4.62012 1.86035l8.04004 6.47949c3.2998 2.64062 7.98047 2.64062 11.2803 0l8.04004 -6.47949c1.31934 -1.02051 2.87988 -1.7998 4.67969 -1.98047l10.2002 -1.13965
c3.95605 -0.449219 7.53027 -4.02441 7.97949 -7.97949l1.14062 -10.2002c0.179688 -1.74023 0.839844 -3.2998 1.85938 -4.62012zM54.0596 14.9404v6c0 1.67969 -1.31934 3 -3 3h-6c-1.61914 0 -3 -1.32031 -3 -3v-6c0 -1.68066 1.38086 -3 3 -3h6c1.68066 0 3 1.31934 3 3
zM63.4199 44.2803l0.120117 -0.0605469c0.479492 1.02051 0.479492 2.2207 0.479492 3.54004c0 1.98047 -0.359375 3.78027 -1.13965 5.28027c-0.839844 1.5 -1.91992 2.75977 -3.2998 3.78027c-1.5 1.01953 -3.24023 1.7998 -5.28027 2.33984
c-2.04004 0.479492 -4.37988 0.780273 -7.01953 0.780273c-2.33984 0 -4.56055 -0.300781 -6.54004 -0.780273c-1.98047 -0.480469 -3.78027 -1.25977 -5.28027 -2.28027c-1.5 -1.01953 -2.7002 -2.39941 -3.66016 -4.01953
c-0.839844 -1.62012 -1.62012 -2.7002 -1.62012 -4.98047h12c-0.00195312 0.0380859 -0.00390625 0.0996094 -0.00390625 0.137695c0 0.478516 0.244141 1.16992 0.543945 1.54199c0.360352 0.540039 0.720703 0.780273 1.2002 1.2002
c0.480469 0.419922 0.839844 0.780273 1.5 0.959961c0.660156 0.180664 1.25977 0.299805 1.7998 0.299805c1.62012 0 2.7002 -0.359375 3.48047 -1.13965c0.839844 -0.780273 1.2002 -1.86035 1.2002 -3.47949c0 -1.26074 -0.480469 -2.2207 -1.2002 -3.54004
c-0.719727 -1.32031 -1.25977 -1.98047 -2.87988 -3.12012c-1.08008 -0.780273 -1.80078 -1.5 -2.45996 -2.28027c-0.660156 -0.839844 -1.14062 -1.67969 -1.5 -2.51953c-0.360352 -0.959961 -0.660156 -1.98047 -0.84082 -3.12012
c-0.179688 -1.02051 -0.179688 -1.56055 -0.179688 -2.87988h10.0205c0 0.719727 0 0.839844 0.179688 1.5c0.179688 0.65918 0.360352 1.19922 0.660156 1.7998c0.299805 0.599609 0.660156 1.13965 1.13965 1.62012c0.480469 0.479492 1.02051 1.08008 1.67969 1.62012
c1.26074 0.899414 2.16016 1.67969 3.12012 2.69922c1.14062 1.14062 1.2002 1.32031 1.98047 2.28027c0.780273 0.839844 1.43945 1.7998 1.7998 2.82031z" />
    <glyph glyph-name="verified" unicode="&#xf0d3;" 
d="M94.0801 41.5801c2.63965 -3.2998 2.63965 -7.98047 0 -11.2803l-6.48047 -8.04004c-1.01953 -1.31934 -1.7998 -2.87988 -1.97949 -4.67969l-1.13965 -10.2002c-0.480469 -4.2002 -3.78027 -7.5 -7.98047 -7.97949l-10.2002 -1.14062
c-1.74023 -0.179688 -3.2998 -0.839844 -4.62012 -1.85938l-8.04004 -6.48047c-3.2998 -2.63965 -7.97949 -2.63965 -11.2793 0l-8.04004 6.48047c-1.32031 1.01953 -2.87988 1.7998 -4.68066 1.97949l-10.1992 1.13965c-4.2002 0.480469 -7.5 3.78027 -7.98047 7.98047
l-1.13965 10.2002c-0.180664 1.74023 -0.839844 3.2998 -1.86035 4.62012l-6.47949 8.04004c-2.64062 3.2998 -2.64062 7.97949 0 11.2793l6.47949 8.04004c1.02051 1.32031 1.7998 2.87988 1.98047 4.68066l1.13965 10.1992c0.479492 4.2002 3.78027 7.5 7.97949 7.98047
l10.2002 1.13965c1.74023 0.180664 3.2998 0.839844 4.62012 1.86035l8.04004 6.47949c3.2998 2.64062 7.98047 2.64062 11.2803 0l8.04004 -6.47949c1.31934 -1.02051 2.87988 -1.7998 4.67969 -1.98047l10.2002 -1.13965
c3.95605 -0.449219 7.53027 -4.02441 7.97949 -7.97949l1.14062 -10.2002c0.179688 -1.74023 0.839844 -3.2998 1.85938 -4.62012zM39.0596 11.9404l39 38.6992l-9 9.30078l-30 -30l-12 12l-9 -9z" />
    <glyph glyph-name="versions" unicode="&#xf0d4;" 
d="M78 66c3.2998 0 6 -2.7002 6 -6v-48c0 -3.2998 -2.7002 -6 -6 -6h-36c-3.2998 0 -6 2.7002 -6 6v48c0 3.2998 2.7002 6 6 6h36zM72 18v36h-24v-36h24zM24 60h6v-6h-6v-36h6v-6h-6c-3.2998 0 -6 2.7002 -6 6v36c0 3.2998 2.7002 6 6 6zM6 54h6v-6h-6v-24h6v-6h-6
c-3.2998 0 -6 2.7002 -6 6v24c0 3.2998 2.7002 6 6 6z" />
    <glyph glyph-name="watch" unicode="&#xf0d5;" 
d="M36 36h12v-6h-18v24h6v-18zM72 36c0 -13.3203 -7.2002 -24.96 -18 -31.1396v-10.8604c0 -3.2998 -2.7002 -6 -6 -6h-24c-3.2998 0 -6 2.7002 -6 6v10.8604c-10.7998 6.17969 -18 17.8193 -18 31.1396s7.2002 24.96 18 31.1396v10.8604c0 3.2998 2.7002 6 6 6h24
c3.2998 0 6 -2.7002 6 -6v-10.8604c10.7998 -6.17969 18 -17.8193 18 -31.1396zM66 36c0 16.6201 -13.3799 30 -30 30s-30 -13.3799 -30 -30s13.3799 -30 30 -30s30 13.3799 30 30z" />
    <glyph glyph-name="x" unicode="&#xf0d6;" 
d="M46.2598 34.6201l22.5 -22.5l-8.87988 -8.87988l-22.5 22.5l-22.5 -22.5l-8.87988 8.87988l22.5 22.5l-22.5 22.5l8.87988 8.87988l22.5 -22.5l22.5 22.5l8.87988 -8.87988z" />
    <glyph glyph-name="zap" unicode="&#xf0d7;" 
d="M60 42l-54 -54l18 42h-24l54 54l-18 -42h24z" />
  </font>
</defs>
</svg>
